<?xml version="1.0" encoding="utf-8"?>
<!-- Generator: Adobe Illustrator 19.2.1, SVG Export Plug-In . SVG Version: 6.00 Build 0)  -->
<svg version="1.1" id="Layer_1" xmlns="http://www.w3.org/2000/svg" xmlns:xlink="http://www.w3.org/1999/xlink" x="0px" y="0px"
	 viewBox="0 0 1980 1020" enable-background="new 0 0 1980 1020" xml:space="preserve">
<path fill="#020201" d="M733.2,248.9c0-11.7,0-23.4,0-35.1c0-10.2,0-20.5,0.1-30.7c0-0.9,0-1.8,0-2.7c0.1-3,0.1-3.1,3-3.1
	c3.2-0.1,6.5,0,9.7,0c3.8,0,7.5,0,11.3,0.1c0,1.9,0,3.9,0,5.8c0,1.3-0.6,1.9-1.9,1.9c-1.4,0-2.8,0.1-4.3,0c-1.7-0.1-2.3,0.7-2.3,2.3
	c0,1.6,0.7,3.6-0.5,4.9c-1.2,1.3-3.2,0.4-4.8,0.6c-0.3,0-0.5,0-0.8,0c-1.1,0.1-1.6,0.7-1.6,1.8c0,0.8,0,1.6,0,2.3
	c0,15.9,0,31.8,0,47.7c0,0.6,0,1.3,0,1.9c0,1.4,0.6,2.1,2.1,2.1c2.1,0,4.1,0,6.2,0c2.7,0.1,5.4,0.2,8.2-0.1c5.1,0,10.1,0,15.2,0
	c5.3,0.1,10.5,0.2,15.8,0.3c0.2,0.2,0.4,0.4,0.6,0.6c0,2.3,0,4.5,0,6.8c-0.2,0.1-0.5,0.1-0.7,0.2c-14.3,0-28.7,0-43,0
	c-4.2,0-4.4,0.2-4.4,4.4c0,10.3,0,20.7,0,31c0,4.7,0,4.7,4.9,5c0.4,0,0.8,0,1.2,0c1.1,0,1.6,0.6,1.7,1.7c0,0.8,0,1.5,0,2.3
	c0.1,3.4,0.3,3.7,3.8,3.7c3.4,0,6.7,0,10.1,0c1.6,0,2.4,0.6,2.3,2.3c-0.1,1.8,0,3.6,0,5.4c-10.6,0.4-21.1,0.2-31.7,0.1
	c0-1.6-0.1-3.1-0.1-4.7c-0.1-6.5-0.1-12.9-0.2-19.4C733.5,275.3,733.4,262.1,733.2,248.9z"/>
<path fill="#152D3E" d="M749.4,248.8c-2.1,0-4.1-0.1-6.2,0c-1.5,0-2.1-0.7-2.1-2.1c0-0.6,0-1.3,0-1.9c0-15.9,0-31.8,0-47.7
	c0-0.8,0-1.6,0-2.3c0-1.1,0.5-1.7,1.6-1.8c0.3,0,0.5,0,0.8,0c1.6-0.2,3.6,0.7,4.8-0.6c1.2-1.3,0.5-3.2,0.5-4.9
	c0-1.6,0.6-2.4,2.3-2.3c1.4,0,2.8,0,4.3,0c1.3,0,1.9-0.6,1.9-1.9c0-1.9,0-3.9,0-5.8c9.5,0,19,0,28.5,0c3.4,0,3.4,0.1,3.4,3.5
	c0,1.4,0,2.8,0,4.2c-6.2,0-12.4,0-18.5,0c-6,0-5.6-0.5-5.6,5.3c0,3.2-0.1,3.3-3.3,3.3c-4.5,0-4.6-0.5-4.5,5.2c0,1,0.3,1.8,0.8,2.5
	c-1.9,0-3.9,0-5.8,0.1c-2.7,0.1-2.7,0.2-2.8,3c0,0.5,0,1,0,1.5c0.1,3.2,0.1,3.3,3.3,3.3c14.7,0,29.4,0,44.2,0c0,2.7,0,5.4-0.1,8.1
	c-3,0-5.9-0.1-8.9-0.1c-11.9,0-23.7,0-35.6,0c-3,0-3,0-3,2.9c0,4.4,0.1,8.8,0.1,13.2C749.1,238.4,749.3,243.6,749.4,248.8z"/>
<path fill="#DFEFF9" d="M749.5,233.1c0-4.4-0.1-8.8-0.1-13.2c0-2.9,0.1-2.9,3-2.9c11.9,0,23.7,0,35.6,0c3,0,5.9,0.1,8.9,0.1
	c0.1,2.3,0.1,4.5,0.2,6.8c-0.3,2.3-0.3,4.7,0,7c-0.3,5.7-0.3,11.4,0,17.1c-0.2,0.2-0.2,0.4-0.2,0.7c-2.5,0-5,0-7.4,0
	c-0.1-1.8-0.2-3.6-0.2-5.4c0-1.6-0.7-2.3-2.3-2.3c-3.9,0-7.8,0-11.7,0c-1.6,0-2.4,0.7-2.3,2.3c0,1.8-0.1,3.6-0.2,5.4
	c-5.1,0-10.1,0-15.2,0c-0.1-4.2-0.1-8.4-0.2-12.7c-0.1-2.7-0.2-2.8-2.9-2.8C752.8,233.1,751.2,233.1,749.5,233.1z"/>
<path fill="#1B3D51" d="M758.2,201.2c-0.5-0.8-0.8-1.6-0.8-2.5c0-5.7,0-5.2,4.5-5.2c3.2,0,3.2-0.1,3.3-3.3c0-5.7-0.4-5.2,5.6-5.3
	c6.2,0,12.4,0,18.6,0c1.8,0,3.6,0.1,5.4,0c1.8-0.1,2.5,0.8,2.4,2.6c-0.1,4.3,0,8.7,0,13c-0.6,0-1.1,0.1-1.5,0.6
	C783.1,201.2,770.7,201.2,758.2,201.2z"/>
<path fill="#020201" d="M758.2,201.2c12.4,0,24.9,0,37.3,0c0.5,0.1,1,0.1,1.5,0.2c0,2.5,0,5.1,0,7.6c-14.7,0-29.4,0.1-44.2,0
	c-3.2,0-3.2-0.1-3.3-3.3c0-0.5,0-1,0-1.5c0.1-2.8,0.2-2.8,2.8-3C754.3,201.2,756.3,201.2,758.2,201.2z"/>
<path fill="#152D3E" d="M797,201.4c-0.5-0.1-1-0.1-1.5-0.2c0.4-0.5,0.9-0.6,1.5-0.6C797,200.8,797,201.1,797,201.4z"/>
<path fill="#FAC710" d="M646,440c-0.7-3.7-0.1-7.5-0.3-11.2c-0.1-1.5,0.3-3.1-0.3-4.6c0-0.2,0-0.4-0.1-0.6c0.6-1.2,0.4-2.5,0.4-3.8
	c0-6.5,0-12.9,0-19.4c0.4-0.1,0.7-0.1,1.1-0.2c2.2-0.3,5.1,1,6.5-0.7c1.4-1.8,0.4-4.6,0.4-7c2-0.6,4.1-0.2,6.2-0.3
	c1.3-0.1,1.9-0.6,1.9-1.9c0-2.2-0.1-4.4,0-6.6c0.2-2.4-1.1-5.5,0.6-7c1.7-1.5,4.7-0.4,7.1-0.4c0,0.8,0.1,1.6,0.1,2.3
	c0.1,5.3,0,5.4,5.2,5.5c1.9,0,2.8,0.5,2.8,2.6c-0.1,2.8,0,5.7,0,8.5c0,5.7-0.1,4.9,4.7,5c3.4,0,3.4,0,3.4,3.4c0,4.9-0.4,4.4,4.3,4.5
	c0.1,0,0.3,0,0.4,0c3.1,0.1,3.2,0.1,3.2,3.2c0,10.8,0,21.5,0,32.3c0,1.4-0.2,2.9,0.3,4.2c-0.1,0.2-0.1,0.4,0,0.7
	c-0.5,7.6-0.3,15.1-0.1,22.7c0,0.3,0,0.5,0,0.8c0,1.4-0.1,2.8-0.1,4.3c0,57.7,0,115.4,0,173.2c0,5.4,0,5.5-5.5,5.7
	c-1.8,0.1-2.5,0.6-2.5,2.5c0,1.6,0.7,3.7-0.5,4.9c-1.3,1.4-3.4,0.6-5.2,0.6c-1.9,0-2.5,0.7-2.5,2.5c0.1,14.2,0.1,28.5,0,42.7
	c0,1.9,0.7,2.5,2.5,2.5c3.8-0.1,7.5,0,11.3,0c1.6,0,2.4,0.5,2.3,2.2c-0.1,1.5-0.1,3.1-0.1,4.7c-1,0.7-2.1,0.9-3.3,0.9
	c-16.4,0-32.9,0-49.3,0c-3.1,0-3.1-0.1-3.2-3.4c0-4.9,0-9.8,0-14.8c0-5.1-0.6-5.3,4.9-5.2c2.7,0,2.9-0.2,2.9-2.9
	c0.1-6.6,0-13.2,0-19.8c0-5.8,0-5.8,5.6-6c2.7-0.1,2.9-0.2,2.9-2.9c0.1-4.9,0-9.8,0-14.8c0-4.7-0.6-5.1,4.8-4.9c0.3,0,0.5,0,0.8,0
	c1.4,0,2.2-0.5,2.2-2c0-1,0-2.1,0-3.1c0-16.2,0-32.4,0-48.6c0-0.9,0.1-1.8,0-2.7c-0.2-2.1,0.9-2.8,2.8-2.6c0.5,0,1,0,1.6,0
	c3.4-0.1,3.4-0.1,3.4-3.5c0-0.8,0-1.6,0-2.3c0-46.9,0-93.8,0-140.7c0-1.8,0.7-3.9-0.5-5.3c-1.2-1.4-3.2-0.6-4.8-0.6
	c-1.9,0-2.5-0.8-2.5-2.6c0.1-3,0-6,0-8.9c0-5-0.2-5.1-5.3-4.8c-1.8,0.1-2.6,0.8-2.5,2.6c0.1,1,0,2.1,0,3.1c0,5.3,0,10.6,0,15.9
	c0,1.8-0.7,2.6-2.5,2.5C649.7,440,647.9,440,646,440z"/>
<path fill="#163042" d="M813,746.4c8.5,0,17.1,0,25.6,0c3.4,0,3.4,0.1,3.5,3.5c0,0.1,0,0.3,0,0.4c0.1,4.6,0.1,4.7,4.9,4.7
	c7.3,0,14.5,0,21.8,0c4.2,0,4.4,0.2,4.4,4.4c0,3,0,6,0,8.9c0,4.5,0,4.5-4.8,4.6c-7.3,0-14.5,0-21.8,0c-4.5,0-4.5,0-4.6,4.3
	c0,0.3,0,0.5,0,0.8c-0.1,3.4-0.1,3.4-3.5,3.4c-12.7,0-25.4,0-38.1,0c-55.4,0-110.9,0-166.3,0c-0.9,0-1.8,0-2.7,0
	c-3.9,0-3.9,0-3.9-3.8c0-4.9,0.2-4.7-4.6-4.7c-7,0-14,0-21,0c-3.6,0-3.9-0.4-4-4.1c0-3.4-0.1-6.7,0-10.1c0.1-2.7,0.2-2.6,2.9-3
	c6.2-0.9,12.3,0.2,18.5,0c1.2,0,2.3,0,3.5,0c4.3-0.2,4.7-0.6,4.7-4.8c0-0.6,0-1.3,0-1.9c-0.1-1.8,0.6-2.7,2.5-2.6c0.6,0,1.3,0,1.9,0
	c20.5,0,40.9,0,61.4,0c0.1,5.8,0.1,11.6,0.2,17.4c0,2.7,0.1,2.8,2.7,2.8c7.2,0,14.5,0.1,21.7,0c2.4,0,5.5,1.2,7-0.6
	c1.3-1.7,0.5-4.7,0.2-7.1c0.1-2.5,0.2-5.1,0.2-7.6c-0.7-1.3-2-0.9-3.1-0.9c-4.1,0-8.2,0-12.3,0c-1.2-1.2-0.5-2.6-0.4-3.9
	c29.1,0,58.2,0,87.2,0c0.1,1.6,0.2,3.1,0.3,4.7c-0.3,2.6-0.3,5.2,0,7.8c-0.1,1.7-0.2,3.3-0.2,5c0,2.7,0.1,2.8,2.8,2.8
	c7.2,0,14.5,0.1,21.7,0c2.4,0,5.6,1.2,7-0.6c1.3-1.7,0.5-4.7,0.2-7.1c0.1-2.6,0.1-5.1,0.2-7.7c-0.8-1.2-2.1-0.8-3.2-0.8
	c-4.1,0-8.2,0-12.3,0C812.4,749.1,813.1,747.7,813,746.4z"/>
<path fill="#FCD642" d="M646,440c1.8,0,3.6-0.1,5.4,0c1.8,0.1,2.5-0.7,2.5-2.5c-0.1-5.3,0-10.6,0-15.9c0-1,0.1-2.1,0-3.1
	c-0.1-1.8,0.7-2.5,2.5-2.6c5.1-0.3,5.3-0.2,5.3,4.8c0,3,0.1,6,0,8.9c0,1.8,0.6,2.6,2.5,2.6c1.6,0,3.7-0.7,4.8,0.6
	c1.2,1.4,0.5,3.5,0.5,5.3c0,46.9,0,93.8,0,140.7c0,0.8,0,1.6,0,2.3c-0.1,3.4-0.1,3.4-3.4,3.5c-0.5,0-1,0-1.6,0
	c-1.9-0.2-3,0.6-2.8,2.6c0.1,0.9,0,1.8,0,2.7c0,16.2,0,32.4,0,48.6c0,1,0,2.1,0,3.1c0,1.5-0.8,2.1-2.2,2c-0.3,0-0.5,0-0.8,0
	c-5.4-0.2-4.8,0.2-4.8,4.9c0,4.9,0,9.8,0,14.8c0,2.7-0.2,2.8-2.9,2.9c-5.6,0.2-5.6,0.2-5.6,6c0,6.6,0,13.2,0,19.8
	c0,2.7-0.2,2.9-2.9,2.9c-5.5-0.1-4.8,0.1-4.9,5.2c0,4.9,0,9.8,0,14.8c0,3.3,0.1,3.4,3.2,3.4c16.4,0,32.9,0,49.3,0
	c1.2,0,2.3-0.1,3.3-0.9c0,0.5,0,1,0,1.4c-20.6,0-41.2,0-61.8-0.1c-3.1,0-6.2,0.5-9.2-0.4c-1.1-3.1-0.4-6.4-0.5-9.6
	c-0.1-3.6-0.1-7.3,0-10.9c0-3,0.1-3,2.9-3.1c5-0.1,5-0.1,5-5c0-12.8,0-25.7,0-38.5c0-0.9,0-1.8,0-2.7c0-1.1,0.4-1.7,1.6-1.7
	c0.4,0,0.8,0,1.2,0c5.1-0.2,5.1-0.2,5.1-5.2c0-23.2,0-46.4,0-69.6c0-0.9,0-1.8,0-2.7c-0.1-1.4,0.5-2.2,2-2.1c0.3,0,0.5,0,0.8,0
	c5.2-0.2,5.2-0.2,5.2-5.5c0-39.1,0-78.2,0-117.4C645.7,443.1,645.5,441.5,646,440z"/>
<path fill="#D2E7F7" d="M693.5,719c0-0.5,0-1,0-1.4c0-1.6,0-3.1,0.1-4.7c0.1-1.7-0.7-2.3-2.3-2.2c-3.8,0.1-7.5,0-11.3,0
	c-1.8,0-2.5-0.6-2.5-2.5c0.1-14.2,0.1-28.5,0-42.7c0-1.8,0.6-2.5,2.5-2.5c1.8,0,3.9,0.8,5.2-0.6c1.2-1.2,0.5-3.2,0.5-4.9
	c0-1.8,0.7-2.4,2.5-2.5c5.5-0.2,5.5-0.3,5.5-5.7c0-57.7,0-115.4,0-173.2c0-1.4,0.1-2.8,0.1-4.3c0.5-0.1,1-0.1,1.5-0.2
	c4.4,0,8.8,0,13.1,0c8.3,0.1,16.6,0.1,24.9,0.2c0,0.2,0,0.5,0,0.7c-7.1,0-14.2,0-21.4,0c-2,0-2.8,0.7-2.8,2.7c0.1,6,0,11.9,0,17.9
	c0,2.6,0.2,2.7,3,2.8c3.1,0.1,6.2,0,9.3,0c3.9,0,3.9,0,4,3.8c0,2.7,0,5.4,0,8.2c0,3.5,0.1,3.5,3.4,3.6c4.5,0.1,4.5,0.1,4.4,4.5
	c0,0.4,0,0.8,0,1.2c0,1.5-0.7,2.1-2.2,2.1c-2.6,0-5.2,0-7.8,0c-5.3,0-5.3,0-5.6,5.3c0,0.1,0,0.3,0,0.4c0,1.9-1,2.8-2.9,2.8
	c-1.3,0-2.6,0-3.9,0c-1.1,0-1.7,0.6-1.7,1.7c0,0.8,0,1.6,0,2.3c0,38.3,0,76.6,0,115c0,4.5-0.1,9.1,0,13.6c0,2-0.8,2.8-2.7,2.7
	c-1.7-0.1-3.4,0-5,0c-1.3,0-2.6,0-3.9,0c-3.9,0-3.9,0-3.9,3.8c0,6.2,0,12.4,0,18.5c0,4.8,0,9.5,0,14.3c0,2.9,0.1,3,3.1,3
	c1.5,0,3.1,0,4.6,0c0,8,0,16,0,24.1c0,3.7,0,7.5,0,11.2c0,5.4,0,10.8,0,16.2c0,4.5,0,4.5,4.7,4.5c1,0,2.1,0,3.1,0c5.3,0,10.7,0,16,0
	c0.3,2.4,1.1,5.4-0.2,7.1c-1.5,1.8-4.6,0.6-7,0.6c-7.2,0.1-14.5,0.1-21.7,0c-2.7,0-2.7-0.1-2.7-2.8c-0.1-5.8-0.1-11.6-0.2-17.4
	C693.8,737.3,693.5,728.1,693.5,719z"/>
<path fill="#FCD642" d="M828.7,384.2c0.1,1.5,0.2,3.1,0.2,4.6c0,47.4,0,94.8,0,142.2c0,1.5,0.1,3.1,0.2,4.6
	c-0.1,1.3-0.2,2.6-0.2,3.9c0,21.1,0,42.2,0,63.4c0,0.8,0,1.6,0,2.3c-0.1,1.5,0.5,2.2,2,2.1c0.1,0,0.3,0,0.4,0
	c1.7,0.1,3.7-0.7,4.9,0.4c1.5,1.4,0.6,3.7,0.6,5.6c0,22.8,0,45.6,0,68.4c0,0.8,0,1.6,0,2.3c0.1,2.9,0.1,2.9,3,3
	c4.9,0.1,4.9,0.1,4.9,5c0,7.6,0,15.3,0,22.9c0,3.9,0,3.9-3.8,3.9c-7.9,0-15.8,0-23.7,0c-1.4,0-2.8,0.1-4.3,0.1
	c-0.1-0.6-0.2-1.3-0.2-1.9c0-24.9,0-49.7,0-74.6c0-0.4,0-0.8,0-1.2c-0.1-1.6,0.4-2.5,2.2-2.4c0.5,0,1,0,1.6,0c4.6,0,4.5,0.5,4.5-4.4
	c0-0.1,0-0.3,0-0.4c0-36.6,0-73.3,0-109.9c0-1.4-0.2-2.8-0.2-4.3c0.4-2.8,0.4-5.7,0-8.5c0.5-13.2,0.3-26.5,0.1-39.7
	c0-4.7,0.1-9.4,0.1-14.2c0-3,0.4-6.1-0.3-9.1c0-0.2,0-0.5-0.1-0.7c0.8-1.4,0.5-3,0.5-4.6c0-18.3,0-36.6,0-54.9
	c0-1.4,0.1-2.8,0.2-4.2C823.7,384.1,826.2,384.1,828.7,384.2z"/>
<path fill="#F7FBFF" d="M820.8,520.1c0.1,1.4,0.2,2.8,0.2,4.3c0,36.6,0,73.3,0,109.9c0,0.1,0,0.3,0,0.4c0,4.9,0.2,4.3-4.5,4.4
	c-0.5,0-1,0-1.6,0c-1.7-0.1-2.3,0.8-2.2,2.4c0,0.4,0,0.8,0,1.2c0,24.9,0,49.7,0,74.6c0,0.6,0.1,1.3,0.2,1.9c0,9.1,0,18.2,0,27.3
	c0,1.3-0.6,2.7,0.5,3.9c-0.2,0.1-0.4,0.2-0.5,0.4c-0.1,0.1-0.3,0.3-0.4,0.4c-2.6,0-5.2,0-7.7,0c0-2.8,0-5.7,0-8.5
	c0-19.6,0-39.1,0-58.7c0-4.8,0-4.8-5-5.1c-2.6-0.1-2.7-0.2-2.8-3c-0.1-5.1,0-10.1,0-15.2c0-4.9-0.7-5.3,4.9-5.2
	c2.7,0.1,2.7-0.2,2.8-2.9c0-0.9,0-1.8,0-2.7c0-19.9,0-39.9,0-59.8c0-19.4,0-38.9,0-58.3c0-3.6,0-3.7,3.3-3.7c3.7,0,4.8,0.7,4.5-4.4
	c0-0.1,0-0.3,0-0.4c0.2-2.4,0.6-2.9,3.1-3C817.4,520,819.1,520.1,820.8,520.1z"/>
<path fill="#C32145" d="M606.1,503.7c-0.4-2.7-0.3-5.3,0-8c4.5,0,9.1,0,13.6,0.1c1.6,0,2.4-0.6,2.3-2.3c-0.1-4.6,0.2-9.3-0.2-14
	c0.5-4.5,0.1-8.9,0.2-13.4c0.1-1.6-0.6-2.3-2.3-2.3c-1.9,0.1-3.8,0-5.8,0c-0.4-4-0.1-8-0.2-12c-0.1-4.1,0-4.1-4-4.1
	c-3.9,0-7.7,0-11.6,0c-0.4-5.3-0.2-10.5-0.1-15.8c5.1,0,10.3-0.1,15.4-0.1c5.4,0.3,10.9,0.3,16.3,0l0.3,0.1l0.3-0.1
	c2.4,0,4.7,0.1,7.1,0.1c0.1,7.2,0.1,14.5,0.2,21.7c0,1.9-0.8,2.4-2.5,2.5c-5.4,0.3-5.3,0.3-5.4,5.8c0,13.8-0.1,27.7-0.1,41.5
	c-5.4,0.1-10.8,0.2-16.2,0.3C611.1,503.8,608.6,503.8,606.1,503.7z"/>
<path fill="#DFEFF9" d="M613.6,503.9c5.4-0.1,10.8-0.2,16.2-0.3c1.9,0.1,3.8,0.2,5.7,0.2c1.5,0,2.4,0.4,2.3,2.1
	c-0.1,1.9-0.1,3.8-0.2,5.7c-3.2,0-6.5,0-9.7,0c-6.3,0-6.3,0-5.8,6.2c0.1,1.6,0.8,2.3,2.4,2.3c1.6,0,3.6-0.7,4.8,0.6
	c1.3,1.2,0.5,3.2,0.6,4.8c0,1.6,0.6,2.4,2.3,2.4c1.8,0,3.6,0,5.4,0c0.3,2.1,0.3,4.2,0,6.2c-0.7,0.3-1.2,0.7-1.5,1.4
	c-7.3,0.2-14.6,0.2-21.8,0c-0.8-1.3-0.7-2.7-0.7-4.1C613.6,522.2,613.6,513,613.6,503.9z"/>
<path fill="#D2E7F7" d="M613.6,503.9c0,9.2,0,18.3,0,27.5c0,1.4-0.1,2.9,0.7,4.1c-1.9,0.1-3.8,0-5.8,0.2c-2,0.2-2.7-0.6-2.7-2.6
	c0.1-6.3,0.1-12.6,0-18.8c0-1.4-0.1-2.8-0.2-4.2c0-0.5,0-1,0-1.6c0-0.5,0-1,0-1.6c0.1-1,0.2-2.1,0.4-3.1
	C608.6,503.8,611.1,503.8,613.6,503.9z"/>
<path fill="#F7FBFF" d="M637.6,527.9c-1.8,0-3.6,0-5.4,0c-1.7,0-2.2-0.8-2.3-2.4c-0.1-1.6,0.7-3.6-0.6-4.8c-1.2-1.2-3.2-0.5-4.8-0.6
	c-1.6,0-2.2-0.7-2.4-2.3c-0.5-6.2-0.5-6.2,5.8-6.2c3.2,0,6.5,0,9.7,0C637.9,517,637.9,522.4,637.6,527.9z"/>
<path fill="#DFEFF9" d="M645.3,423.6c0.1,0.2,0.1,0.4,0.1,0.6c-2.6,0.2-5.1-0.3-7.7,0.3c-2.6,0-5.2,0-7.8,0c0,0,0,0,0,0
	c0-5.4,0-10.9,0-16.3c1.7,0,3.4,0.1,5,0c2-0.1,2.8,0.6,2.8,2.7c-0.1,3.4,0,6.7,0,10.1c0,1.9,0.6,2.9,2.6,2.8
	C642,423.6,643.6,423.6,645.3,423.6z"/>
<path fill="#F7FBFF" d="M629.9,424.5c2.6,0,5.2,0,7.8,0c0,2.1-0.1,4.1-0.1,6.2c-0.1,0.1-0.3,0.1-0.3,0.2c0,0.2,0.1,0.4,0.2,0.5
	c0.1,0.2,0.1,0.4,0.1,0.6c-2.4,0-4.7-0.1-7.1-0.1c-0.2-0.2-0.4-0.3-0.6-0.5C629.9,429.1,629.9,426.8,629.9,424.5z"/>
<path fill="#D2E7F7" d="M636.2,535.5c0.3-0.6,0.8-1.1,1.5-1.4C638,535.4,637.4,535.8,636.2,535.5z"/>
<path fill="#DFEFF9" d="M637.5,431.4c-0.1-0.2-0.2-0.4-0.2-0.5c0,0,0.2-0.1,0.3-0.2C637.6,430.9,637.6,431.2,637.5,431.4z"/>
<path fill="#F7FBFF" d="M884.8,415.1c-0.1,2.9-0.2,5.8-0.3,8.7c-5.3,0.1-10.6,0.3-15.9-0.1c0-4,0-8,0-12c0-3.5-0.1-3.5-3.4-3.6
	c-0.8,0-1.6,0-2.3,0c-1.5,0-2.1-0.8-2-2.2c0-0.6,0-1.3,0-1.9c0-3.6,0-3.6,3.7-3.6c4-0.1,4-0.1,4.1-3.7c0-4,0-4-4.1-4.1
	c-0.4,0-0.8,0-1.2,0c-1.8,0.1-2.6-0.6-2.6-2.5c0.1-2.7,0-5.4,0-8.2c0-5.4,0-5.4-5.2-5.7c-1.7-0.1-2.6-0.5-2.6-2.4
	c0-1.6,0.7-3.6-0.6-4.8c-1.3-1.2-3.2-0.4-4.9-0.5c-0.1,0-0.3,0-0.4,0c-2,0.2-2.7-0.8-2.7-2.8c0.1-8.8,0.1-17.6,0-26.4
	c0-2,0.7-2.8,2.7-2.7c1.7,0.1,3.6,0.6,5-0.3c1.8-1.2,0.7-3.3,0.8-5.1c0.1-1.6,0.6-2.4,2.3-2.4c1.8,0,3.6,0,5.4,0
	c2.6,0.4,5.3-0.5,7.8,0.8c0.2,4.9,0.3,9.9,0,14.8c-1.7,0-3.4,0.1-5,0c-2.1-0.1-2.7,0.9-2.6,2.8c0.1,6.2,0.1,12.4,0,18.6
	c0,1.9,0.6,2.9,2.7,2.8c1.7-0.1,3.3,0,5,0.1c2.5,1.4,5.3,0.4,7.9,0.7c0.1,2.4,0.2,4.7,0.4,7.1c-0.3,7.7-0.3,15.5,0,23.2
	c-0.1,2.7-0.2,5.5-0.3,8.2c0.3,1.1,1.3,1.1,2.2,1.1c1.9,0,3.8,0,5.7,0.1C884.5,411,884.7,413.1,884.8,415.1z"/>
<path fill="#DFEFF9" d="M860.7,328.9c-1.8,0-3.6,0-5.4,0c-1.7,0-2.2,0.8-2.3,2.4c-0.1,1.7,0.9,3.9-0.8,5.1c-1.4,0.9-3.3,0.4-5,0.3
	c-2-0.1-2.7,0.7-2.7,2.7c0.1,8.8,0.1,17.6,0,26.4c0,1.9,0.6,2.9,2.7,2.8c0.1,0,0.3,0,0.4,0c1.6,0.2,3.6-0.6,4.9,0.5
	c1.3,1.2,0.6,3.2,0.6,4.8c0,1.9,0.9,2.4,2.6,2.4c5.2,0.2,5.2,0.3,5.2,5.7c0,2.7,0.1,5.4,0,8.2c0,1.9,0.8,2.6,2.6,2.5
	c0.4,0,0.8,0,1.2,0c4.1,0.1,4.1,0.1,4.1,4.1c0,3.6,0,3.6-4.1,3.7c-3.7,0.1-3.7,0.1-3.7,3.6c0,0.6,0,1.3,0,1.9c0,1.4,0.6,2.2,2,2.2
	c0.8,0,1.6,0,2.3,0c3.3,0.1,3.4,0.1,3.4,3.6c0,4,0,8,0,12c-5.2,0.5-10.4,0.1-15.6,0.2c-0.1-3.7-0.1-7.5-0.2-11.2
	c0-1.3,0.2-2.6-0.3-3.8c-0.2-1.1-1.2-0.7-1.8-0.8c-2-0.2-4.1,0.3-6.1-0.4c0.1-7.1,0.1-14.2,0.2-21.3c0-1.7-0.6-2.3-2.3-2.3
	c-1.7,0-3.4,0.3-5-0.2c-0.2-0.2-0.4-0.5-0.5-0.7c-0.1-7.6-0.1-15.1-0.2-22.7c0-10.6,0-21.2,0-31.7l0,0c3.2,0,6.4,0,9.6,0
	c5.5,0,5.5,0,5.9-5.4c0-0.1,0-0.3,0-0.4c0-1.9,1-2.8,2.9-2.8c1.8,0,3.6,0,5.4,0c0.1,2.3,0.2,4.7,0.3,7c0,0.3-0.1,0.7-0.1,1
	C860.8,328.5,860.8,328.7,860.7,328.9z"/>
<path fill="#1B3D51" d="M788.5,256.6c0.2-0.1,0.5-0.1,0.7-0.2c2.6,0.6,5.4-0.7,7.9,0.9c-0.9-0.1-1.8-0.3-2.7-0.3
	c-6.2,0-5.3-0.6-5.4,5.2c-0.1,6.1,0.4,12.3-0.3,18.4c-1.5,0-3.1,0-4.6,0c-3.3,0.1-3.3,0.1-3.4,3.5c0,1.4,0,2.8,0,4.2
	c-1.8,0-3.6,0.1-5.4,0c-1.7,0-2.4,0.7-2.3,2.3c0,1.3,0,2.6,0,3.9c0.1,1.6-0.7,2.2-2.3,2.3c-5.1,0.4-5.4,0.2-5.5-4.6
	c0-3.8,0-3.8-3.8-3.9c-3.9-0.1-3.9-0.1-4-3.8c-0.1-3.9-0.1-3.9-3.8-4c-4.2-0.1-4.9-0.7-4.8-5c0-0.8,0.1-1.6,0.2-2.3
	c0.9-4.4,0.8-8.7,0.1-13.1c-0.4-2.5-0.2-2.9,2.5-2.9c3.6-0.1,7.3,0.1,10.9,0c2.1-0.1,2.7,0.9,2.7,2.8c-0.1,2.8,0,5.7,0,8.5
	c0,4.3,0,4.3,4.3,4.2c0.5,0,1,0,1.6,0c1.3,0,1.9-0.7,1.9-1.9c0-0.8,0-1.6,0-2.3c0.1-3.4,0.1-3.4,3.5-3.5c4.1-0.1,4.2-0.2,4.3-4.1
	c0-0.4,0-0.8,0-1.2c-0.1-1.8,0.7-2.5,2.5-2.5C785,257.2,786.9,257.9,788.5,256.6z"/>
<path fill="#DFEFF9" d="M852.3,289.2c1.1,2.4-0.1,5.1,0.8,7.6c2.3,0.5,4.6,0.1,6.9,0.2c0.4,0.3,0.6,0.8,0.6,1.3
	c-0.1,4.7-0.1,9.5-0.2,14.2c-0.9,0-1.8,0-2.7,0c-4.3,0-4.3,0-4.8-4.5c-0.3-2.4-0.9-3.3-2.9-3.3c-6.3-0.1-12.6,0-19,0
	c-1.7,0-2.2,0.9-2.2,2.5c0,2.3-0.1,4.7,0,7c0.1,1.9-0.8,4.1,0.6,5.6c1.2,1.2,3.2,0.5,4.8,0.5c1.6,0,2.3,0.7,2.3,2.4
	c0,2.1,0,4.1,0,6.2c0,0,0,0,0,0c-1.2,0-2.3,0-3.5,0c-4.3,0-4.3,0-4.3,4.1c0,2.4,0,4.9,0,7.3c0,4.1,0,4.1-3.9,4.1c-1.3,0-2.6,0-3.8,0
	c0-9.4,0-18.9,0-28.3c0-6.5-0.1-12.9-0.2-19.4c0,0,0,0,0,0c3.6,0.1,7.2,0.2,10.9,0.2c4.6,0,5,0.6,4.9-4.8c-0.1-2.9,0.1-2.9,3.2-3
	C844.1,289.2,848.2,289.2,852.3,289.2z"/>
<path fill="#F7FBFF" d="M836.7,328.8c0-2.1-0.1-4.1,0-6.2c0-1.6-0.7-2.3-2.3-2.4c-1.6,0-3.7,0.7-4.8-0.5c-1.4-1.5-0.5-3.7-0.6-5.6
	c-0.1-2.3,0-4.6,0-7c0-1.5,0.4-2.5,2.2-2.5c6.3,0,12.6,0,19,0c2,0,2.7,0.9,2.9,3.3c0.5,4.4,0.5,4.4,4.8,4.5c0.9,0,1.8,0,2.7,0
	c0.3,2.6,0.3,5.2,0,7.7c-1.8,0-3.6,0-5.4,0c-1.9,0-2.9,0.8-2.9,2.8c0,0.1,0,0.3,0,0.4c-0.4,5.4-0.4,5.4-5.9,5.4
	C843.2,328.8,840,328.8,836.7,328.8z"/>
<path fill="#FAC710" d="M788.7,280.6c0.7-6.1,0.2-12.3,0.3-18.4c0.1-5.8-0.8-5.2,5.4-5.2c0.9,0,1.8,0.2,2.7,0.3c0,1.7,0.1,3.3-0.1,5
	c-0.1,1.9,0.4,2.8,2.5,2.8c1.7,0,3.9-0.9,5.1,0.6c1,1.3,0.3,3.4,0.4,5.2c0,0.6,0,1.3,0,1.9c0,0-0.2,0.2-0.2,0.2
	c-1.3,0-2.6-0.1-3.9-0.1c-3.8,0-3.8,0-3.9,3.8c0,9.3,0,18.5-0.1,27.8c-2.3,0-4.6,0-6.9,0.1c-0.3-0.2-0.5-0.4-0.8-0.6
	c-0.1-1.4-0.1-2.8-0.2-4.2c-0.2-3.8,0.3-7.6-0.3-11.4C789.2,285.8,789.4,283.2,788.7,280.6z"/>
<path fill="#FCD642" d="M821,280.6c4.4,0,8.8,0.2,13.1,0.1c2,0,2.8,0.6,2.6,2.7c-0.1,1.7,0,3.4,0,5c-4.4,0-8.8,0.2-13.2,0.1
	c-1.8,0-2.6,0.5-2.6,2.4c0.1,1.9,0,3.9,0,5.8c0,0,0,0,0,0c-2.8-0.1-5.6,0.2-8.4-0.2c0-2.6,0-5.1,0.1-7.7c0.1-2.5-1.1-5.7,0.6-7.5
	C815.1,279.5,818.4,280.9,821,280.6z"/>
<path fill="#FAC710" d="M821,280.6c-2.6,0.2-5.9-1.2-7.8,0.7c-1.7,1.7-0.5,4.9-0.6,7.5c-0.1,2.6-0.1,5.1-0.1,7.7
	c-2.6,0.1-5.2,0.2-7.7,0.3c0-8,0-16-0.1-24c0,0,0.2-0.2,0.2-0.2c4.5,0,9,0.2,13.5,0.1c1.8,0,2.6,0.5,2.5,2.4
	C820.9,277,821,278.8,821,280.6z"/>
<path fill="#DFEFF9" d="M868.5,368.6c-1.7,0-3.4-0.1-5-0.1c-2.1,0.1-2.7-0.9-2.7-2.8c0.1-6.2,0.1-12.4,0-18.6c0-1.9,0.6-2.9,2.6-2.8
	c1.7,0.1,3.4,0,5,0c0.3,7.8,0.2,15.6,0.1,23.5C868.5,368.1,868.5,368.3,868.5,368.6z"/>
<path fill="#D2E7F7" d="M821,296.8c0-1.9,0.1-3.9,0-5.8c-0.1-1.9,0.8-2.5,2.6-2.4c4.4,0,8.8-0.1,13.2-0.1c0.3,0.1,0.5,0.1,0.7,0
	c4.4,0.4,8.8,0.3,13.2,0c0.5,0.4,1.5-0.2,1.6,0.8c-4.1,0-8.3,0-12.4,0c-3.1,0-3.2,0.1-3.2,3c0.1,5.4-0.3,4.8-4.9,4.8
	C828.2,297,824.6,296.8,821,296.8z"/>
<path fill="#163042" d="M850.7,288.4c-4.4,0.3-8.8,0.3-13.2,0c0.2-0.8,0.6-1.4,1.5-1.4c3.4,0,6.9,0,10.3,0
	C850.2,286.9,850.6,287.6,850.7,288.4z"/>
<path fill="#D2E7F7" d="M868.5,368.6c0-0.2,0.1-0.5,0.1-0.7c0.1,0,0.3,0,0.4,0c2.4,1.1,4.9,0.3,7.4,0.5c0.1,0.3,0.4,0.6,0.1,1
	C873.8,368.9,871,370,868.5,368.6z"/>
<path fill="#D2E7F7" d="M860.7,328.9c0-0.2,0-0.4,0-0.5c0.3,0,0.6-0.1,0.8-0.1c1.8,0.5,3.6,0.1,5.4,0.3c0.7,0.1,1.6-0.1,1.5,1.1
	C866,328.4,863.3,329.3,860.7,328.9z"/>
<path fill="#163042" d="M789.5,248.7c2.5,0,5,0,7.4,0c-0.9,1.4-2.3,0.7-3.5,0.8c-1.4,0.1-2.8,0.1-4.2,0.1c-0.2-0.2-0.4-0.4-0.6-0.6
	C788.9,248.9,789.2,248.8,789.5,248.7z"/>
<path fill="#D2E7F7" d="M860.1,297c-2.3-0.1-4.6,0.2-6.9-0.2C855.5,296.8,857.8,296.3,860.1,297z"/>
<path fill="#163042" d="M1881.5,1136.8c0.5,0.2,1.4,0.4,1.5,0.8c0.2,0.4-0.4,1-0.6,1.6c-0.5-0.2-1.4-0.4-1.5-0.7
	C1880.7,1138,1881.2,1137.3,1881.5,1136.8z"/>
<path fill="#D2E7F7" d="M613.6,431.9c-5.1,0-10.3,0.1-15.4,0.1c-0.1-4.6-0.2-9.2-0.3-13.8c0.1-5.9,0.1-11.9,0.2-17.8
	c0.8,0,1.5-0.1,2.3-0.1c5.9-0.1,5.9-0.1,5.4-6.1c0-1.8,1.2-1.9,2.6-1.9c5.5-0.2,5.5-0.2,5.5-5.9c0-2.6,0.1-5.1,0-7.7
	c-0.1-1.9,0.7-2.5,2.5-2.4c1.4,0.1,2.8-0.1,4.2-0.1c0.6,0.1,1.2,0.3,1.2-0.7c0.3-2.8,0.3-5.7,0-8.5c0-0.5,0-1,0-1.6
	c0.3-1,0.3-2.1,0-3.1c0.6-3.3-0.3-6.7,0.5-10c2.2,0.1,4.5,0.3,6.7-0.2c0.9-0.2,0.8-0.8,0.8-1.5c0-3,0-5.9,0-8.9c0-6.2,0-12.4,0-18.6
	c0-1.6,0.1-2.8,2.2-2.7c1.3,0.1,2.6,0,3.9,0c1.3,0,1.9-0.5,1.8-1.8c-0.1-4.1-0.1-8.3-0.2-12.4c0.2-0.7,0.3-1.6,1.3-1.6
	c0.9,0,1.8,0,2.7,0c4.3,0,4.1,0.5,4.1-4.3c0-3.1,0.1-6.2,0-9.3c-0.1-1.8,0.6-2.5,2.5-2.5c4.5,0,9.1,0.3,13.6-0.2
	c6.3,0.1,12.6,0.1,18.9,0.2c5.2,0.1,5-0.7,5,5c0,3,0.1,3.1,3,3.1c4.2,0.1,8.5,0.1,12.7,0.1c0,1.8,0.1,3.6,0,5.4
	c-0.1,1.8,0.5,2.6,2.4,2.5c1.8-0.1,3.6,0.1,5.4,0.1c0,9.3,0,18.6,0,27.9c0,3.2,0.4,3.7,3,3.9c5.1,0.4,5.1,0.4,5.6,5.6
	c0.1,1.7,0.9,2.3,2.4,2.2c0.6,0,1.3,0,1.9,0c11.8,0,23.5,0,35.3,0c2.4,0.1,5.6-0.7,7.1,0.5c1.9,1.5,0.4,4.8,0.7,7.3
	c-17.3,0-34.6,0-51.9,0c-0.6,0-1.3,0-1.9,0c-1.5,0-2.1-0.7-2.1-2.1c-0.1-1.7,0.6-3.6-0.4-4.9c-1.3-1.5-3.4-0.6-5.2-0.7
	c-1.4-0.1-2.2-0.6-2.2-2.1c0-0.9,0-1.8,0-2.7c0-7.9,0-15.8,0-23.6c0-3.4-0.1-3.4-3.5-3.4c-4,0-8,0-12,0c0-1.7,0-3.4,0-5
	c0-1.7-0.8-2.7-2.6-2.7c-0.6,0-1.3,0-1.9,0c-3.7-0.1-3.9-0.3-4-4c-0.1-3.8-0.1-3.8-3.9-3.8c-3.7,0-3.7,0-3.8,3.9c0,0.4,0,0.8,0,1.2
	c0.2,2-0.7,2.8-2.7,2.7c-3.2-0.1-6.5-0.1-9.7,0c-3,0-3.1,0.1-3.1,3c-0.1,5.3,0,10.6,0,15.9c0,5.2,0.5,5.2-4.9,5.2
	c-3.2,0-3.6,0.4-3.6,3.6c-0.1,5.3,0,10.6,0,15.9c0,3.7,0,3.7-3.6,3.8c-4,0.1-4.2,0.3-4.2,4.2c0,5.7,0,11.4,0,17.1
	c0,1.5-0.1,2.8-2.2,2.9c-1.7,0-3.6-0.7-4.9,0.5c-1.5,1.3-0.5,3.4-0.7,5.2c-0.1,1.4-0.7,2.1-2.1,2.1c-0.6,0-1.3,0-1.9,0
	c-3.3,0.1-3.7,0.4-3.7,3.9c0,4.1,0,8.3,0,12.4c-1.7,0-3.4,0-5,0c-2.5,0.1-3.2,0.7-3.5,3.2c-0.1,0.9,0,1.8,0,2.7
	C613.6,414.8,613.6,423.4,613.6,431.9z"/>
<path fill="#1B3D51" d="M626,351.9c1,0.1,2,0.1,3,0.2c-2.2,0.5-4.5,0.2-6.7,0.2C623.5,352.2,624.8,352.1,626,351.9z"/>
<path fill="#FCD642" d="M614,464c1.9,0,3.8,0.1,5.8,0c1.6,0,2.3,0.6,2.3,2.3c-0.1,4.5,0.2,9-0.2,13.4c-5.2,0-10.5,0-15.7,0
	c-0.1-1.8-0.2-3.6-0.2-5.4c0.1-1.9-0.7-2.3-2.5-2.4c-5.5-0.2-5.5-0.2-5.4-5.9c0-0.6,0.1-1.3,0.2-1.9C603.5,464.1,608.7,464,614,464z
	"/>
<path fill="#FAC710" d="M606.1,479.7c5.2,0,10.5,0,15.7,0c0.5,4.6,0.1,9.3,0.2,14c0.1,1.7-0.7,2.3-2.3,2.3
	c-4.5-0.1-9.1-0.1-13.6-0.1C605.8,490.4,605.8,485,606.1,479.7z"/>
<path fill="#FAC710" d="M614,464c-5.3,0.1-10.5,0.1-15.8,0.2c-0.2-5.4-0.3-10.8,0.1-16.2c3.9,0,7.7,0,11.6,0c3.9,0,3.9,0,4,4.1
	C613.9,456,613.5,460,614,464z"/>
<path fill="#C32145" d="M853,424c5.2-0.1,10.4,0.3,15.6-0.2c5.3,0.4,10.6,0.2,15.9,0.1c0.4,2.8,0.4,5.6,0,8.3c-4.4,0-8.7,0-13.1-0.1
	c-1.9,0-2.8,0.5-2.7,2.6c0.2,4.4,0.1,8.7,0.2,13.1c-0.2,5.4-0.3,10.9,0,16.3c-0.1,2.6-0.2,5.1-0.1,7.7c0,2.4-1,5.5,0.4,7.1
	c1.6,1.9,4.8,0.5,7.3,0.7c0.1,2.7,0.2,5.3-0.1,8c-3.1,0.1-6.2,0.1-9.3,0.2c-0.4,0-0.8,0-1.2,0c-1.6-0.1-3.3-0.2-4.9-0.4
	c0-14.2-0.1-28.4-0.1-42.5c0-1,0-2.1,0-3.1c0-1.1-0.5-1.7-1.6-1.8c-0.3,0-0.5,0-0.8,0c-1.6-0.2-3.7,0.7-4.8-0.5
	c-1.4-1.4-0.5-3.7-0.6-5.6C852.9,430.7,853,427.3,853,424z"/>
<path fill="#D2E7F7" d="M821.2,344.4c1.3,0,2.6,0,3.8,0c3.9,0,3.9,0,3.9-4.1c0-2.4,0-4.9,0-7.3c0-4.1,0-4.1,4.3-4.1
	c1.2,0,2.3,0,3.5,0c0,10.6,0,21.2,0,31.7c-2.3-0.2-4.7-0.3-7,0.1c-0.6-0.1-0.8,0.3-0.7,0.8c-0.1,6-0.1,12-0.2,18.1
	c0,1.5-0.1,3.1-0.2,4.6c-2.5,0-5,0-7.5-0.1c0,0-0.1-0.1-0.1-0.1C821.1,370.8,821.1,357.6,821.2,344.4L821.2,344.4z"/>
<path fill="#D2E7F7" d="M860.9,487.5c1.6,0.1,3.3,0.2,4.9,0.4c-0.1-0.1-0.1-0.2-0.1-0.3c0.1,0,0.3,0,0.4,0c0.7,0.1,1.5,0.2,2.2,0.2
	c0.1,1,0.4,2,0.4,3c0,9.5,0,19,0,28.6c-5.1,0.6-10.3-0.1-15.4,0.3c-0.5-1.2-0.3-2.5-0.3-3.8c0-8.1,0-16.2,0-24.4
	c0-1.3-0.2-2.6,0.3-3.8c1.5,0,2.9,0.1,4.4,0.1c0.6,0.5,1.2,0.5,1.8-0.1c0.4-0.1,0.9,0.1,1.2-0.3L860.9,487.5z"/>
<path fill="#FCD642" d="M868.8,447.8c-0.1-4.4,0-8.7-0.2-13.1c-0.1-2.1,0.8-2.6,2.7-2.6c4.4,0.1,8.7,0.1,13.1,0.1
	c0.1,0.3,0.3,0.5,0.4,0.8c-0.3,4.7-0.3,9.3,0,14l-0.1,0.2c0,0,0.1,0.2,0.1,0.2c-2.6,1.1-5.4,0.3-8.1,0.6
	C874.1,447.9,871.5,447.9,868.8,447.8z"/>
<path fill="#F7FBFF" d="M868.5,519.4c0-9.5,0.1-19,0-28.6c0-1-0.2-2-0.4-3.1c-0.4,0-0.8,0-1.2,0c3.1-0.1,6.2-0.1,9.3-0.2
	c0.3,10.7,0.5,21.4-0.1,32C873.7,519.6,871.1,519.5,868.5,519.4z"/>
<path fill="#FAC710" d="M868.8,447.8c2.7,0.1,5.3,0.1,8,0.2c0,0.2,0.1,0.4,0.3,0.6c-1,1.9-0.4,4-0.5,6c-0.1,3.2-0.1,6.4-0.2,9.5
	c-2.5,0-5,0-7.6,0C868.5,458.7,868.5,453.2,868.8,447.8z"/>
<path fill="#FCD642" d="M868.8,464.1c2.5,0,5,0,7.6,0c0.3,5.2,0.2,10.4,0.1,15.6c-2.5-0.2-5.7,1.2-7.3-0.7c-1.4-1.7-0.4-4.7-0.4-7.1
	C868.6,469.3,868.7,466.7,868.8,464.1z"/>
<path fill="#D2E7F7" d="M836.9,383.3c0.2,0.2,0.4,0.5,0.5,0.7C836.9,384,836.8,383.8,836.9,383.3z"/>
<path fill="#1B3D51" d="M829.1,361.5c-0.1-0.5,0-0.9,0.7-0.8C829.5,360.9,829.3,361.2,829.1,361.5z"/>
<path fill="#D2E7F7" d="M884.6,408.3c-0.1,0.2-0.2,0.5-0.3,0.7c-1.9,0-3.8,0-5.7-0.1c-0.9,0-1.8,0-2.2-1.1c0.2,0,0.5,0.1,0.7,0
	c0.2,0,0.5,0.1,0.7,0.1c0.8,0,1.6,0,2.4,0C881.7,408.1,883.2,408.2,884.6,408.3z"/>
<path fill="#1B3D51" d="M621.8,375.5c0,1-0.6,0.8-1.2,0.7C620.8,375.7,621.3,375.5,621.8,375.5z"/>
<path fill="#FAC710" d="M701.4,296.8c-4.2,0-8.5,0-12.7-0.1c-2.9-0.1-3-0.2-3-3.1c0-5.7,0.2-4.9-5-5c-6.3-0.1-12.6-0.1-18.9-0.2
	c0-1.8,0-3.6-0.1-5.4c-0.1-1.7,0.6-2.3,2.3-2.2c3.6,0.1,7.2,0,10.8,0.1c1.9,0.1,2.7-0.4,2.8-2.6c0.1-5.4,0.2-5.4,5.6-5.4
	c2.7,0,5.4-0.1,8.1,0c1.7,0.1,2.2-0.7,2.2-2.3c0-1.8-0.8-4,0.5-5.2c1.4-1.2,3.7-0.4,5.6-0.4c2.6-0.1,5.2,0,7.7,0
	c1.3,0,1.9-0.6,1.9-1.8c0-1,0-2.1,0-3.1c0.1-3.1,0.1-3.1,3.3-3.1c2.7-0.1,5.4-0.1,8.1-0.2c0.4,0.1,0.7,0.2,1.1,0.2
	c3.4,0.1,3.4,0,3.4-3.3c0.1-5.1-0.7-4.6,4.7-4.7c1,0,2,0,3.1,0c0.2,13.2,0.3,26.3-0.1,39.5c-1.4,0-2.9,0-4.3,0
	c-3.3-0.1-3.3-0.1-3.4-3.2c0-2.7,0-5.4,0-8.2c0-4.3,0-4.3-4.3-4.2c-0.1,0-0.3,0-0.4,0c-3,0.1-3,0.1-3.1,3.1c0,7,0,14,0,21
	c-1,0-2.1,0-3.1,0c-5.4,0-5.4,0-5.4-5.6c0-4.5,0-9,0-13.6c0-5.1-0.1-5.2-5.2-4.9c-0.1,0-0.3,0-0.4,0c-1.4-0.1-2.1,0.5-2.2,2
	c-0.1,1.8,0.8,3.9-0.6,5.2c-1.3,1.3-3.5,0.4-5.2,0.6c-1.2,0.1-1.8,0.6-1.9,1.9c-0.7,4.9-0.1,5.6,4.9,5.9c0.1,0,0.3,0,0.4,0
	c1.9-0.1,2.5,0.8,2.5,2.6C701.4,292.9,701.4,294.9,701.4,296.8z"/>
<path fill="#152D3E" d="M788.5,256.6c-1.6,1.4-3.5,0.6-5.2,0.7c-1.8,0.1-2.7,0.7-2.5,2.5c0,0.4,0,0.8,0,1.2c-0.1,3.9-0.2,4-4.3,4.1
	c-3.4,0.1-3.4,0.1-3.5,3.5c0,0.8,0,1.6,0,2.3c0,1.2-0.6,1.9-1.9,1.9c-0.5,0-1,0-1.6,0c-4.3,0.1-4.3,0.1-4.3-4.2c0-2.8-0.1-5.7,0-8.5
	c0.1-1.9-0.6-2.9-2.7-2.8c-3.6,0.1-7.3,0-10.9,0c-2.7,0-2.9,0.4-2.5,2.9c0.7,4.4,0.8,8.7-0.1,13.1c-0.2,0.8-0.2,1.5-0.2,2.3
	c-0.1,4.3,0.5,4.9,4.8,5c3.7,0.1,3.7,0.1,3.8,4c0.1,3.7,0.1,3.7,4,3.8c3.8,0.1,3.8,0.1,3.8,3.9c0.1,4.8,0.4,5,5.5,4.6
	c1.6-0.1,2.4-0.7,2.3-2.3c0-1.3,0-2.6,0-3.9c-0.1-1.6,0.6-2.4,2.3-2.3c1.8,0,3.6,0,5.4,0c0,0,0.2,0.3,0.2,0.3
	c-0.1,3.6-0.1,7.2-0.1,10.8c0,5,0,5-5.1,5.3c-0.1,0-0.3,0-0.4,0c-1.6-0.1-2.4,0.6-2.3,2.3c0.1,1.8,0,3.6,0,5.4c-2.6,0-5.2,0-7.9,0
	c0-1.8,0-3.6,0-5.4c0.1-1.7-0.7-2.3-2.3-2.3c-3.4,0-6.7,0-10.1,0c-3.5,0-3.7-0.3-3.8-3.7c0-0.8,0-1.5,0-2.3c0-1.1-0.6-1.6-1.7-1.7
	c-0.4,0-0.8,0-1.2,0c-4.9-0.2-4.9-0.2-4.9-5c0-10.3,0-20.7,0-31c0-4.2,0.2-4.4,4.4-4.4C759.8,256.6,774.2,256.6,788.5,256.6z"/>
<path fill="#C32145" d="M765.2,312.4c2.6,0,5.2,0,7.9,0c5.4,0.4,10.8,0.3,16.1,0c0.9,0,1.8,0.1,2.7,0.1c5.8,0.2,5.1-1.2,5.2,5.5
	c0,1.7-0.3,2.8-2.3,2.5c-2.3-0.3-2.5,1-2.5,2.8c0,1.8,0.3,3.6-0.3,5.4c-1,0-2.1-0.1-3.1-0.1c-2.9,0.1-2.9,0.1-2.9,3.1
	c-0.1,4.7-0.1,4.7-4.9,5.1c-3.2-0.4-3.2-0.4-3.2-3.3c0-0.9,0-1.8,0-2.7c0-1.2-0.4-1.8-1.7-2c-3-0.4-3-0.5-3-3.8
	c-0.1-4.1-0.1-4.1-3.9-4.1c-3.9,0-3.9,0-3.9,4.1c0,0.5,0,1,0,1.5c0.1,1.6-0.5,2.5-2.2,2.3c-2.1-0.2-2.7,0.9-2.5,2.7
	c0.1,0.6,0,1.3,0,1.9c-0.1,2.9-0.1,2.9-3.2,3.3c-0.8-0.1-1.5-0.1-2.3-0.2c-1.8-0.2-4,0.7-5.2-0.5c-1.3-1.2-0.5-3.4-0.5-5.2
	c0-1.6-0.5-2.4-2.2-2.3c-1.8,0.1-3.6,0.1-5.4,0.2c-0.1-0.6-0.3-1.2-0.4-1.9c-0.1-1.9,0.5-4.3-0.4-5.6c-1.2-1.7-3.8-0.6-5.7-0.7
	c-1.2-0.1-1.8-0.5-1.8-1.8c0-2-0.1-4.1-0.2-6.1l0.4-0.1C744,312.6,754.6,312.8,765.2,312.4z"/>
<path fill="#FCD642" d="M717.8,297c0-7-0.1-14,0-21c0-3,0.1-3,3.1-3.1c0.1,0,0.3,0,0.4,0c4.3-0.1,4.3-0.1,4.3,4.2c0,2.7,0,5.4,0,8.2
	c0.1,3.1,0.1,3.1,3.4,3.2c1.4,0,2.9,0,4.3,0c0.1,6.5,0.1,12.9,0.2,19.4c0,1.6,0.1,3.1,0.1,4.7c0,0-0.4,0.1-0.4,0.1
	c-5.1,0-10.2,0-15.4,0c-0.1-2.5-0.1-5.1-0.2-7.6c0.1-0.1,0.2-0.2,0.3-0.3c0.9,0,1.8,0.1,2.7,0.1c5.2,0,5.4-0.2,4.9-5.5
	c0-0.1,0-0.3,0-0.4c0-1.3-0.7-1.9-1.9-1.9C721.6,297,719.7,297,717.8,297L717.8,297z"/>
<path fill="#FCD642" d="M789.5,248.7c-0.3,0.1-0.6,0.2-1,0.3c-5.3-0.1-10.5-0.2-15.8-0.3c0.1-1.8,0.2-3.6,0.2-5.4
	c0-1.6,0.7-2.3,2.3-2.3c3.9,0,7.8,0,11.7,0c1.6,0,2.3,0.7,2.3,2.3C789.3,245.1,789.4,246.9,789.5,248.7z"/>
<path fill="#FCD642" d="M749.5,233.1c1.7,0,3.3,0,5,0.1c2.7,0.1,2.8,0.2,2.9,2.8c0.1,4.2,0.1,8.4,0.2,12.7c-2.7,0.4-5.4,0.2-8.2,0.1
	C749.3,243.6,749.1,238.4,749.5,233.1z"/>
<path fill="#D2E7F7" d="M693.9,447.8c-0.5-1.4-0.3-2.8-0.3-4.2c0-10.8,0-21.5,0-32.3c0-3.2-0.1-3.2-3.2-3.2c-0.1,0-0.3,0-0.4,0
	c-4.7,0-4.3,0.5-4.3-4.5c0-3.4-0.1-3.4-3.4-3.4c-4.8,0-4.7,0.7-4.7-5c0-2.9-0.1-5.7,0-8.5c0.1-2.1-0.8-2.6-2.8-2.6
	c-5.2-0.1-5.2-0.2-5.2-5.5c0-0.8-0.1-1.6-0.1-2.3c0-8,0-16.1,0-24.1c1.9,0,3.8,0,5.7,0c1.4,0,2.1-0.7,2.1-2.1c0-1.9,0-3.8,0-5.7
	c0-0.6,0-1.3,0-1.9c0-5.6,0-5.6,5.7-5.9c2.7-0.1,2.8-0.2,2.9-2.9c0.1-4.5,0-9,0-13.4c1.3,0,2.6,0,3.9,0c3.8,0,3.8,0,3.9,3.9
	c0,1,0,2.1,0,3.1c0,20.5,0,40.9,0,61.4c0,3.8,0,3.8,3.8,3.9c3.9,0.1,3.9,0.1,3.9,4.2c0,17,0,33.9,0,50.9
	C698.9,447.8,696.4,447.8,693.9,447.8z"/>
<path fill="#DFEFF9" d="M677.3,344.4c0,1.9,0,3.8,0,5.7c0,1.4-0.7,2.1-2.1,2.1c-1.9,0-3.8,0-5.7,0c-0.8,0-1.5,0-2.3,0
	c-5.2,0-5.2,0-5.4-5c-0.1-1.9-0.6-3-2.6-2.8c-0.6,0.1-1.3,0-1.9,0c-3.1,0.1-3.2,0.1-3.2,3.3c0,5.2,0,10.3,0,15.5
	c0,5.2,0.7,5.5-5.1,5.3c-0.3,0-0.5,0-0.8,0c-1.7,0-2.6,0.9-2.6,2.7c0,6.3,0,12.6,0,19c0,1.5,0.9,2.4,2.4,2.4c1.9,0,3.9,0,5.8,0
	c0,2.4,1,5.2-0.4,7c-1.4,1.7-4.3,0.4-6.5,0.7c-0.4,0.1-0.8,0.1-1.1,0.2c-1.9,0-3.9-0.1-5.8-0.1c-1.4,0-2.2-0.6-2.2-2.1
	c0-0.8,0-1.6,0-2.3c-0.1-3.4-0.1-3.4-3.6-3.4c-0.8,0-1.6,0-2.3,0c-1.3,0-1.9,0.7-1.9,1.9c0,1.9,0,3.9,0,5.8c-2.6,0-5.2,0-7.8,0l0,0
	c0-4.1,0-8.3,0-12.4c0-3.5,0.4-3.8,3.7-3.9c0.6,0,1.3,0,1.9,0c1.5,0,2-0.7,2.1-2.1c0.1-1.8-0.8-3.9,0.7-5.2c1.3-1.1,3.2-0.4,4.9-0.5
	c2.1,0,2.2-1.3,2.2-2.9c0-5.7,0-11.4,0-17.1c0-3.9,0.2-4.1,4.2-4.2c3.5-0.1,3.5-0.1,3.6-3.8c0-5.3,0-10.6,0-15.9
	c0-3.2,0.4-3.6,3.6-3.6c5.4,0,4.9,0.1,4.9-5.2c0-5.3,0-10.6,0-15.9c0-2.9,0.1-3,3.1-3c3.2-0.1,6.5-0.1,9.7,0c2,0.1,2.9-0.7,2.7-2.7
	c0-0.4,0-0.8,0-1.2c0.1-3.9,0.1-3.9,3.8-3.9c3.8,0,3.8,0,3.9,3.8c0.1,3.7,0.3,3.9,4,4c0.6,0,1.3,0,1.9,0c1.8,0,2.6,1,2.6,2.7
	c0,1.7,0,3.4,0,5c0,0,0,0,0,0c-7.1,0-14.2,0-21.3,0c-1.6,0-2.8,0.2-2.8,2.2c0,6.6,0,13.2,0,19.7c0,1.4,0.6,2.1,2.1,2.2
	c1.7,0.1,3.6-0.6,4.9,0.4c1.6,1.2,0.7,3.4,0.7,5.1c0.1,1.7,0.8,2.3,2.4,2.3C673.7,344.4,675.5,344.4,677.3,344.4z"/>
<path fill="#F7FBFF" d="M653.7,392.5c-1.9,0-3.9,0-5.8,0c-1.5,0-2.4-0.9-2.4-2.4c0-6.3,0-12.6,0-19c0-1.7,0.8-2.6,2.6-2.7
	c0.3,0,0.5,0,0.8,0c5.8,0.2,5.1,0,5.1-5.3c0-5.2,0-10.3,0-15.5c0-3.2,0.1-3.3,3.2-3.3c0.6,0,1.3,0.1,1.9,0c2.1-0.2,2.6,0.9,2.6,2.8
	c0.2,5,0.2,5,5.4,5c0.8,0,1.5,0,2.3,0c0,8,0,16.1,0,24.1c-2.4,0.1-5.4-1-7.1,0.4c-1.8,1.6-0.5,4.6-0.6,7c-0.1,2.2-0.1,4.4,0,6.6
	c0,1.3-0.6,1.8-1.9,1.9C657.8,392.3,655.7,391.9,653.7,392.5z"/>
<path fill="#020201" d="M693.9,448.5c4.4,0,8.7,0.1,13.1,0c1.6,0,2.3,0.6,2.3,2.3c0,6.2,0,12.3,0,18.5c0,1-0.3,1.7-0.9,2.5
	c-4.4,0-8.8,0-13.1,0c-0.4-0.5-0.9-0.6-1.5-0.6C693.6,463.6,693.4,456.1,693.9,448.5z"/>
<path fill="#F7FBFF" d="M629.9,400.4c0-1.9,0-3.9,0-5.8c0-1.2,0.6-1.9,1.9-1.9c0.8,0,1.6,0,2.3,0c3.5,0,3.5,0,3.6,3.4
	c0,0.8,0,1.6,0,2.3c0,1.5,0.8,2.1,2.2,2.1c1.9,0,3.9,0.1,5.8,0.1c0,6.5,0,12.9,0,19.4c0,1.3,0.3,2.6-0.4,3.8c-1.7,0-3.4-0.1-5,0
	c-2.1,0.1-2.7-0.9-2.6-2.8c0.1-3.4-0.1-6.7,0-10.1c0.1-2-0.8-2.8-2.8-2.7c-1.7,0.1-3.4,0-5,0C629.9,405.6,629.9,403,629.9,400.4z"/>
<path fill="#1B3D51" d="M796.9,746.4c-29.1,0-58.2,0-87.2,0c-0.1-1.5-0.1-3-0.2-4.6c-0.1-5,0.3-9.9-0.2-14.9c0.1-2.7,0.2-5.3,0.4-8
	c29.1,0,58.2,0,87.3,0c0,1.4,0.1,2.8,0.1,4.2c0.1,6.4,0.1,12.8,0.2,19.3C797.1,743.8,797,745.1,796.9,746.4z"/>
<path fill="#DFEFF9" d="M709.2,726.9c0.5,5,0.1,9.9,0.2,14.9c0,1.5,0.1,3,0.2,4.6c-0.1,1.3-0.7,2.7,0.4,3.9c-0.2,0-0.4,0.2-0.6,0.4
	c-0.4,2.7-0.2,5.5-0.2,8.2c-1,0-2.1,0-3.1,0c-4.7,0-4.7,0-4.7-4.5c0-5.4,0-10.8,0-16.2c0-3.7,0-7.5,0-11.2
	C704,726.9,706.6,726.9,709.2,726.9z"/>
<path fill="#D2E7F7" d="M828.7,758.8c0.2,2.4,1.1,5.5-0.2,7.1c-1.4,1.8-4.6,0.6-7,0.6c-7.2,0.1-14.5,0.1-21.7,0
	c-2.7,0-2.7-0.1-2.8-2.8c0-1.7,0.1-3.3,0.2-5c5.1,0,10.3,0,15.4,0C818,758.8,823.4,758.8,828.7,758.8z"/>
<path fill="#F7FBFF" d="M709.2,758.8c0-2.7-0.2-5.5,0.2-8.2c1.9,0.1,3.8,0.1,5.7,0.2c3.4,0.2,6.9-0.4,10.3,0.4
	c-0.1,2.5-0.2,5.1-0.2,7.6C719.9,758.8,714.6,758.8,709.2,758.8z"/>
<path fill="#F7FBFF" d="M828.7,758.8c-5.4,0-10.7,0-16.1,0c0-2.6,0-5.2,0-7.7c0.1-0.1,0.3-0.3,0.4-0.4c5.3,0.4,10.6-0.3,15.9,0.4
	C828.9,753.6,828.8,756.2,828.7,758.8z"/>
<path fill="#DFEFF9" d="M812.6,751c0,2.6,0,5.2,0,7.7c-5.1,0-10.3,0-15.4,0c-0.3-2.6-0.3-5.2,0-7.8c2.6,0,5.1,0,7.7,0
	C807.4,751,810,751,812.6,751z"/>
<path fill="#D2E7F7" d="M804.9,751c-2.6,0-5.1,0-7.7,0c-0.1-1.6-0.2-3.1-0.3-4.7c0.1-1.3,0.2-2.6,0.3-3.9c2.5,0,5.1,0,7.6,0
	C804.8,745.3,804.9,748.2,804.9,751z"/>
<path fill="#1B3D51" d="M725.5,751.1c-3.4-0.8-6.9-0.2-10.3-0.4c-1.9-0.1-3.8-0.1-5.7-0.2c0.1-0.2,0.3-0.3,0.6-0.4
	c4.1,0,8.2,0,12.3,0C723.5,750.2,724.8,749.8,725.5,751.1z"/>
<path fill="#1B3D51" d="M828.9,751.1c-5.3-0.7-10.6,0-15.9-0.4c0.1-0.2,0.3-0.3,0.5-0.4c4.1,0,8.2,0,12.3,0
	C826.9,750.2,828.1,749.9,828.9,751.1z"/>
<path fill="#DFEFF9" d="M804.8,742.5c-2.5,0-5.1,0-7.6,0c-0.1-6.4-0.1-12.8-0.2-19.3c0-1.4-0.1-2.8-0.1-4.2c0-8,0.1-15.9,0.1-23.9
	c0-1.7-0.1-3.4,0-5c0.1-1.9-0.5-3-2.6-2.8c-0.5,0-1,0-1.5,0c-3.6-0.1-3.6-0.1-3.6-3.7c0-9.7,0-19.4-0.1-29c0-18.3,0-36.6,0-54.9
	c0-17.6,0-35.2,0.1-52.8c0-0.4,0-0.8,0-1.2c0-1.4-0.6-2.2-2-2.2c-0.8,0-1.6,0-2.3,0c-3.4-0.1-4-0.6-4.1-4.1c-0.1-2.7,0-5.4,0-8.2
	c0-3.2-0.1-3.3-3.2-3.3c-8.2,0-16.3,0-24.5,0c-2.8,0-2.7,0.1-3.6,3.1c-0.4,1.5-0.6,3-0.6,4.6c-1,0-2.1,0.1-3.1,0
	c-4.6,0-4.8,0.4-4.7-4.6c0-3-0.1-3-3-3.1c-0.6,0-1.3,0-1.9,0c-1.9-0.1-2.7,0.6-2.8,2.6c-0.2,4.9-0.3,4.9-4.9,5.1
	c-2.7,0.1-2.8,0.2-2.8,3c-0.1,3.1,0,6.2,0,9.3c0,3.7-0.3,3.9-4,4c-3.7,0.1-3.8,0.1-3.8,4c0,5.4,0,10.9,0,16.3c0,24.8,0,49.7,0,74.5
	c-2.8,0-5.6,0-8.5,0.1c0-38.3,0-76.6,0-115c0-0.8,0-1.6,0-2.3c0.1-1.1,0.7-1.6,1.7-1.7c1.3,0,2.6-0.1,3.9,0c1.9,0,2.9-0.9,2.9-2.8
	c0-0.1,0-0.3,0-0.4c0.3-5.3,0.4-5.3,5.6-5.3c2.6,0,5.2,0,7.8,0c1.4,0,2.2-0.6,2.2-2.1c0-0.4,0-0.8,0-1.2c0.1-4.4,0.1-4.4-4.4-4.5
	c-3.3-0.1-3.3-0.1-3.4-3.6c0-2.7,0-5.4,0-8.2c0-3.8,0-3.8-4-3.8c-3.1,0-6.2,0-9.3,0c-2.9-0.1-3-0.1-3-2.8c-0.1-6,0-11.9,0-17.9
	c0-2,0.8-2.7,2.8-2.7c7.1,0.1,14.2,0,21.4,0c0,9.3,0,18.6,0,27.9c0,3,0.1,3,2.6,3.2c1.5,0.1,3.3-0.6,4.5,0.5
	c1.3,1.2,0.5,3.2,0.7,4.8c0,0.3,0,0.5,0,0.8c0.1,1.1,0.7,1.6,1.7,1.6c1,0,2.1,0,3.1,0c12.5,0,25.1,0,37.6,0c5.3,0,5.3,0,5.7-5.2
	c0-0.1,0-0.3,0-0.4c0-1.4,0.5-2.2,2-2.2c0.8,0,1.6,0,2.3,0c3.3-0.1,3.4-0.1,3.4-3.6c0-9.2,0-18.4,0-27.5c4.1,0,8.3,0,12.4,0
	c3,0,3.1,0.1,3.2,3c0,1.4,0,2.8,0,4.3c0,9.2,0,18.3,0,27.5c0,3.8,0.3,4.1,4.2,4.1c1.3,0,2.6,0,3.9,0c0.4,2.8,0.4,5.7,0,8.5
	c-1.7,0-3.4-0.1-5.1,0c-2.5,0.1-2.9,0.5-3.1,3c0,0.1,0,0.3,0,0.4c0.3,5.1-0.8,4.4-4.5,4.4c-3.2,0-3.3,0.1-3.3,3.7
	c0,19.4,0,38.9,0,58.3c0,19.9,0,39.9,0,59.8c0,0.9,0,1.8,0,2.7c-0.1,2.8-0.2,3-2.8,2.9c-5.6-0.1-4.9,0.3-4.9,5.2
	c0,5.1,0,10.1,0,15.2c0,2.8,0.1,2.9,2.8,3c5,0.3,5,0.3,5,5.1C804.8,703.4,804.8,722.9,804.8,742.5z"/>
<path fill="#F7FBFF" d="M797.1,472.7c0,9.2,0,18.4,0,27.5c0,3.5-0.1,3.5-3.4,3.6c-0.8,0-1.6,0-2.3,0c-1.5,0-2.1,0.8-2,2.2
	c0,0.1,0,0.3,0,0.4c-0.3,5.2-0.3,5.2-5.7,5.2c-12.5,0-25.1,0-37.6,0c-1,0-2.1,0-3.1,0c-1.1,0-1.7-0.6-1.7-1.6c0-0.3,0-0.5,0-0.8
	c-0.2-1.6,0.7-3.6-0.7-4.8c-1.2-1.1-3-0.4-4.5-0.5c-2.5-0.2-2.6-0.2-2.6-3.2c0-9.3,0-18.6,0-27.9c0-0.2,0-0.5,0-0.7c0,0,0-0.2,0-0.2
	c14.1,0,28.2,0.1,42.3,0.1c7.1,0,14.2-0.1,21.4-0.1l0.1,0.2C797.1,472.2,797,472.5,797.1,472.7z"/>
<path fill="#F7FBFF" d="M709.2,646.9c2.8,0,5.6,0,8.5-0.1c0,0,0.1,0.1,0.1,0.1c-0.8,5.3-0.1,10.7-0.4,16c-1.7,0-3.4,0.1-5,0.1
	c-2.8,0.1-2.9,0.1-2.9,2.8c0,17.7,0.1,35.4,0.1,53.1c-0.1,2.7-0.2,5.3-0.4,8c-2.6,0-5.2,0-7.8,0c0-8,0-16,0-24.1
	c0-13.2,0-26.4,0-39.7c1.7,0,3.4-0.1,5,0c2,0.1,2.8-0.7,2.7-2.7C709.1,655.9,709.2,651.4,709.2,646.9z"/>
<path fill="#DFEFF9" d="M701.4,663.2c0,13.2,0,26.4,0,39.7c-1.5,0-3.1,0-4.6,0c-3-0.1-3.1-0.1-3.1-3c-0.1-4.8,0-9.5,0-14.3
	c0-6.2,0-12.4,0-18.5c0-3.8,0-3.8,3.9-3.8C698.9,663.2,700.1,663.2,701.4,663.2z"/>
<path fill="#D2E7F7" d="M821.2,384.1c-0.1,1.4-0.2,2.8-0.2,4.2c0,18.3,0,36.6,0,54.9c0,1.5,0.3,3.1-0.5,4.6c0,0-0.1-0.1-0.1-0.1
	c-0.3-0.4-0.5-0.4-0.8,0c-2.1,0.2-4.1,0.2-6.2,0c-1-3.4-0.8-6.9-0.8-10.4c0-15.7,0-31.3,0-47c0-1-0.1-2.1,0-3.1
	c0.3-2.5,1-3.1,3.4-3.2c1.7-0.1,3.4-0.1,5-0.1L821.2,384.1z"/>
<path fill="#D2E7F7" d="M797.1,472c5.5-0.1,10.9-0.2,16.4-0.2c2.5,0,4.9,0,7.4,0.1c0.2,13.2,0.4,26.5-0.1,39.7c-1.3,0-2.6,0-3.9,0
	c-3.9-0.1-4.2-0.3-4.2-4.1c0-9.2,0-18.3,0-27.5c0-1.4,0-2.8,0-4.3c-0.1-2.9-0.1-3-3.2-3c-4.1-0.1-8.3,0-12.4,0
	C797,472.5,797.1,472.2,797.1,472z"/>
<path fill="#020201" d="M820.8,471.8c-2.5,0-4.9,0-7.4-0.1c-0.6-0.9-0.8-1.9-0.8-2.9c0-5.8,0-11.6,0-17.4c0-2.7,0.2-2.8,2.9-2.9
	c1.7-0.1,3.4,0,5,0c0.8,3,0.3,6.1,0.3,9.1C821,462.4,820.9,467.1,820.8,471.8z"/>
<path fill="#DFEFF9" d="M613.6,431.9c0-8.5,0-17.1,0-25.6c0-0.9-0.1-1.8,0-2.7c0.3-2.4,1-3.1,3.5-3.2c1.7-0.1,3.4,0,5,0l0,0
	c0,3.1,0,6.2,0,9.3c0,4.1,0,8.3,0,12.4c0,1.6,0.7,2.4,2.3,2.3c1.8,0,3.6,0,5.4,0c0,0,0,0,0,0c0,2.3,0,4.6,0.1,7c0,0.2-0.1,0.3,0,0.5
	C624.5,432.2,619,432.2,613.6,431.9z"/>
<path fill="#D2E7F7" d="M629.9,431.9c0-0.2,0-0.3,0-0.5c0.2,0.2,0.4,0.3,0.6,0.5c0,0-0.3,0.1-0.3,0.1L629.9,431.9z"/>
<path fill="#D2E7F7" d="M629.9,424.5c-1.8,0-3.6,0-5.4,0c-1.6,0-2.3-0.7-2.3-2.3c0-4.1,0-8.3,0-12.4c0-3.1,0-6.2,0-9.3
	c2.6,0,5.2,0,7.8,0c0,2.6,0,5.2,0,7.8C629.9,413.6,629.9,419,629.9,424.5z"/>
<path fill="#183547" d="M788.7,280.6c0.6,2.6,0.5,5.2,0.1,7.8c-2.6,0.1-5.3-0.2-7.9,0.2c0,0-0.2-0.3-0.2-0.3c0-1.4,0-2.8,0-4.2
	c0.1-3.5,0.1-3.5,3.4-3.5C785.7,280.6,787.2,280.6,788.7,280.6z"/>
<path fill="#D2E7F7" d="M804.8,296.9c2.6-0.1,5.2-0.2,7.7-0.3c2.8,0.4,5.6,0.1,8.4,0.2c0.1,6.5,0.1,12.9,0.2,19.4
	c0,9.4,0,18.9,0,28.3c0,0,0,0,0,0c-1.4,0-2.8,0-4.3,0c-3.5,0-4.1,0.5-4.3,3.9c-0.3,3.8-0.3,3.8-4.3,3.8c-11.8,0-23.5,0-35.3,0
	c0.2-2.4-1-5.5,0.5-7.1c1.6-1.8,4.8-0.4,7.4-0.7c7,0,14,0,21,0c1.7,0,3.1-0.1,3.1-2.4c0-1.6-0.7-3.6,0.6-4.8
	c1.3-1.2,3.2-0.5,4.9-0.5c1.7,0,2.3-0.7,2.3-2.4c0-1.8,0-3.6,0-5.4c0-7.1,0-14.1,0-21.2c0-2.7-0.2-2.8-2.9-2.9
	c-1.7-0.1-3.3-0.1-5-0.1C805.1,302.1,805,299.5,804.8,296.9z"/>
<path fill="#F7FBFF" d="M804.7,304.7c1.7,0,3.3,0,5,0.1c2.7,0.1,2.8,0.2,2.9,2.9c0,7.1,0,14.1,0,21.2c-6.9-0.1-13.8,0.2-20.6-0.2
	c0.6-1.8,0.3-3.6,0.3-5.4c0-1.8,0.2-3.1,2.5-2.8c2,0.3,2.4-0.8,2.3-2.5c-0.1-6.7,0.6-5.3-5.2-5.5c-0.9,0-1.8-0.1-2.7-0.1
	c0-2.6-0.2-5.1,0.2-7.7c0.3-0.1,0.5-0.1,0.8-0.2c2.3,0,4.6,0,6.9-0.1C799.6,304.5,802.2,304.6,804.7,304.7z"/>
<path fill="#020201" d="M789.3,304.7c-0.4,2.6-0.1,5.1-0.2,7.7c-5.4,0.3-10.8,0.3-16.1,0c0-1.8,0-3.6,0-5.4c0-1.6,0.7-2.4,2.3-2.3
	c0.1,0,0.3,0,0.4,0c5.1-0.3,5.1-0.3,5.1-5.3c0-3.6,0.1-7.2,0.1-10.8c2.6-0.5,5.3-0.1,7.9-0.2c0.6,3.8,0.1,7.6,0.3,11.4
	c0.1,1.4,0.1,2.8,0.2,4.2C789.3,304.2,789.3,304.5,789.3,304.7z"/>
<path fill="#FCD642" d="M804.7,304.7c-2.6-0.1-5.2-0.1-7.7-0.2c0-9.3,0-18.5,0.1-27.8c0-3.8,0-3.8,3.9-3.8c1.3,0,2.6,0,3.9,0.1
	c0,8,0,16,0.1,24C805,299.5,805.1,302.1,804.7,304.7z"/>
<path fill="#FCD642" d="M789.3,304.7c0-0.3,0-0.5,0-0.8c0.3,0.2,0.5,0.4,0.8,0.6C789.8,304.6,789.6,304.7,789.3,304.7z"/>
<path fill="#DFEFF9" d="M773,352.2c11.8,0,23.5,0,35.3,0c4,0,4,0,4.3-3.8c0.2-3.4,0.8-3.9,4.3-3.9c1.4,0,2.8,0,4.3,0
	c0,13.2,0,26.4-0.1,39.6c-1.7,0-3.4,0-5,0.1c-2.4,0.1-3.2,0.8-3.4,3.2c-0.1,1,0,2.1,0,3.1c0,15.7,0,31.3,0,47c0,3.5-0.2,7,0.8,10.4
	c-5.3,0.6-10.7,0-16.1,0.3c-0.1-0.1-0.2-0.2-0.3-0.3c0-2.6,0-5.1,0-7.7c1.9,0,3.9,0,5.8,0c1.2,0,1.9-0.6,1.9-1.9c0-0.8,0-1.6,0-2.3
	c0-21,0-42,0-62.9c0-0.8,0-1.6,0-2.3c0-1.2-0.5-2-1.8-2c-1.4,0-2.8,0-4.3,0c-1.1,0-1.6,0.7-1.6,1.8c0,1.2,0,2.3,0,3.5
	c0,0.8,0.1,1.9-0.7,2.1c-3,0.6-2.4,2.8-2.4,4.8c-0.1,3.3-0.1,3.3-3.6,3.3c-4.8,0-9.6,0-14.4,0c-2.8,0-2.9,0.2-3,2.8
	c-0.1,3.5-0.1,7,0,10.5c0,2.9,0.1,3,3.2,3c4.1,0,8.3,0,12.4,0c5.1,0,5.1,0,5.4-5.1c0.1-0.9-0.1-1.9,0.8-2.4c2.4-1.4,5.4,0.1,5.3,2.9
	c0,1.5,0.8,3.7-0.8,4.3c-2.7,0.9-2.2,2.7-2.3,4.6c-0.1,3.6-0.1,3.6-3.8,3.6c-5.8,0-11.7,0-17.5,0c-1.9,0-2.9,0.4-2.9,2.6
	c0.1,6.3,0.1,12.7,0,19c0,1.8,0.7,2.5,2.5,2.5c4.3-0.1,8.5,0,12.8,0c5.3,0,5.3,0,5.6-5.2c0.1-0.9-0.1-1.8,0.9-2.3
	c2.6-1.3,5.2,0.1,5.3,3c0,0.9,0,1.8,0,2.7c0,0.8-0.3,1.6-1.2,1.7c-2.1,0.3-1.9,1.8-1.9,3.2c0,1.6,0,3.1,0,4.7c-7.1,0-14.2,0-21.3,0
	c-1.9,0-2.9,0.6-2.8,2.7c0.1,1.7,0,3.4,0,5c-2.6,0.2-5.2,0.3-7.8,0c0-0.1,0-0.3,0-0.4c-0.2-2.3,1-5.1-0.7-6.7
	c-1.7-1.6-4.5-0.5-6.7-0.6c-4.7-0.1-9.3-0.1-14,0c-2,0-2.8-0.8-2.7-2.8c0.1-1.7,0-3.4,0-5l0,0c6.7,0,13.4,0,20.1,0c4,0,4,0,4-4.1
	c0-3.6,0-7.2,0-10.8c0-2.3,0-4.6,0-7c0-1.4-0.6-2.2-2.1-2.1c-0.9,0-1.8,0-2.7,0c-5.4,0-10.8,0-16.3,0c-2.9,0-3-0.1-3-3.1
	c0-1.5,0-3.1,0-4.6l0,0c7.1,0,14.2,0,21.3,0c1.5,0,2.8-0.1,2.8-2.2c0-4,0-8,0-12c0-1.4-0.7-2.1-2.1-2.1c-0.9,0-1.8,0-2.7,0
	c-5.3,0-10.6,0-15.9,0c-3.4,0-3.4-0.1-3.4-3.5c0-1.4,0-2.8,0-4.3c15.8,0,31.6,0,47.3,0c4,0,4,0,4-4.2c0-1.6,0.4-3.5-2.1-3.8
	c-0.9-0.1-0.9-1.1-1-1.9c0-1.3,0-2.6-0.1-3.9c0-1.1-0.6-1.7-1.6-1.7c-0.8,0-1.6,0-2.3,0c-16,0-32.1,0-48.1,0c-0.5,0-1,0-1.6,0
	c-1.7-0.1-2.3,0.7-2.3,2.3c0,1.8,0,3.6,0,5.4c-1.4,0-2.8,0-4.3,0c-3.4,0.1-3.4,0.1-3.5,3.4c0,0.4,0,0.8,0,1.2c-0.1,3-0.1,3.1-3,3.2
	c-0.9,0-1.8,0-2.7,0c-1.5,0-2.1,0.8-2,2.2c0,0.9,0,1.8,0,2.7c0,15.2,0,30.5,0,45.7c0,5,0,5,5.1,5.3c0.1,0,0.3,0,0.4,0
	c1.7-0.1,2.3,0.7,2.3,2.3c0,1.6-0.7,3.6,0.6,4.8c1.2,1.2,3.2,0.5,4.8,0.6c1.6,0,2.4,0.6,2.4,2.3c0,1.8,0,3.6,0,5.4
	c-0.1,0.1-0.2,0.2-0.3,0.3c-9.1-0.1-18.2-0.1-27.4-0.2c-1.4,0-2.8-0.1-4.2-0.1c0-17,0-33.9,0-50.9c0-4.1,0-4.1-3.9-4.2
	c-3.8-0.1-3.8-0.1-3.8-3.9c0-20.5,0-40.9,0-61.4c0-1,0-2.1,0-3.1c0-3.8,0-3.8-3.9-3.9c-1.3,0-2.6,0-3.9,0c0-2.6,0-5.2,0-7.8
	c0,0,0,0,0,0c4,0,8,0,12,0c3.5,0,3.5,0.1,3.5,3.4c0,7.9,0,15.8,0,23.6c0,0.9,0,1.8,0,2.7c0,1.5,0.8,2,2.2,2.1
	c1.7,0.1,3.9-0.8,5.2,0.7c1.1,1.3,0.4,3.2,0.4,4.9c0.1,1.4,0.7,2.2,2.1,2.1c0.6,0,1.3,0,1.9,0c17.3,0,34.6,0,51.9,0c0,0,0,0,0,0
	C767.8,353.5,770.4,353.3,773,352.2L773,352.2z"/>
<path fill="#DFEFF9" d="M717.6,305c0.1,2.5,0.1,5.1,0.2,7.6c0,4.5,0.1,9,0,13.5c0,1.9,0.6,2.8,2.7,2.8c7.1-0.1,14.1-0.1,21.2-0.2
	c1.8-0.1,3.6-0.1,5.4-0.2c1.7-0.1,2.2,0.7,2.2,2.3c0,1.8-0.8,4,0.5,5.2c1.3,1.2,3.5,0.3,5.2,0.5c0.8,0.1,1.5,0.1,2.3,0.2
	c0,2.5,0.1,5.1,0.1,7.7c-11.8,0-23.5,0-35.3,0c-0.6,0-1.3,0-1.9,0c-1.6,0.1-2.3-0.6-2.4-2.2c-0.4-5.1-0.5-5.1-5.6-5.6
	c-2.6-0.2-2.9-0.6-3-3.9c0-9.3,0-18.6,0-27.9C712,304.7,714.8,304.5,717.6,305z"/>
<path fill="#020201" d="M757.4,344.4c0-2.6-0.1-5.1-0.1-7.7c3.1-0.4,3.1-0.4,3.2-3.3c0-0.6,0.1-1.3,0-1.9c-0.2-1.9,0.4-3,2.5-2.7
	c1.7,0.2,2.3-0.7,2.2-2.3c0-0.5,0-1,0-1.5c0-4.1,0-4.1,3.9-4.1c3.9,0,3.9,0,3.9,4.1c0,3.3,0,3.4,3,3.8c1.3,0.2,1.7,0.8,1.7,2
	c0,0.9,0,1.8,0,2.7c0.1,2.9,0.1,2.9,3.2,3.3c0,2.6,0.3,5.1-0.2,7.7c-2.5,0.3-5.7-1.2-7.4,0.7c-1.4,1.6-0.3,4.7-0.5,7.1
	c0,0-0.1,0.1-0.1,0.1c-2.6,0-5.2-0.1-7.8-0.1c0,0,0,0,0,0c-0.3-2.5,1.2-5.8-0.7-7.3C763,343.6,759.8,344.5,757.4,344.4z"/>
<path fill="#FCD642" d="M717.6,305c-2.8-0.5-5.6-0.3-8.4-0.2c-1.8,0-3.6-0.2-5.4-0.1c-1.9,0.1-2.5-0.8-2.4-2.5c0.1-1.8,0-3.6,0-5.4
	c0-1.9-0.1-3.9,0-5.8c0.1-1.8-0.6-2.7-2.5-2.6c-0.1,0-0.3,0-0.4,0c-5.1-0.3-5.6-0.9-4.9-5.9c0.2-1.3,0.7-1.8,1.9-1.9
	c1.8-0.2,3.9,0.7,5.2-0.6c1.4-1.3,0.5-3.4,0.6-5.2c0.1-1.5,0.8-2.1,2.2-2c0.1,0,0.3,0,0.4,0c5.1-0.3,5.2-0.2,5.2,4.9
	c0,4.5,0,9,0,13.6c0,5.6,0,5.6,5.4,5.6c1,0,2.1,0,3.1,0c0,0,0,0,0,0c0,2.6,0.1,5.1,0.1,7.7C717.8,304.7,717.7,304.8,717.6,305z"/>
<path fill="#1B3D51" d="M867,487.9c0.4,0,0.8,0,1.2,0c-0.7-0.1-1.5-0.2-2.2-0.2c-0.1,0-0.2,0-0.4,0c0,0.1,0.1,0.2,0.1,0.3
	C866.2,487.9,866.6,487.9,867,487.9z"/>
<path fill="#DFEFF9" d="M780.9,344.4c0.4-2.5,0.2-5.1,0.2-7.7c4.8-0.4,4.8-0.4,4.9-5.1c0.1-3,0.1-3,2.9-3.1c1,0,2.1,0.1,3.1,0.1
	c6.9,0.4,13.8,0.1,20.6,0.2c0,1.8,0,3.6,0,5.4c0,1.6-0.6,2.3-2.3,2.4c-1.6,0-3.6-0.7-4.9,0.5c-1.3,1.2-0.6,3.2-0.6,4.8
	c0,2.3-1.3,2.4-3.1,2.4C794.8,344.4,787.8,344.4,780.9,344.4z"/>
<path fill="#F7FBFF" d="M741.6,328.7c-7.1,0-14.1,0-21.2,0.2c-2.1,0-2.7-0.9-2.7-2.8c0.1-4.5,0-9,0-13.5c5.1,0,10.2,0,15.4,0
	c0.1,2,0.2,4.1,0.2,6.1c0,1.3,0.6,1.7,1.8,1.8c2,0.2,4.6-1,5.7,0.7c0.9,1.4,0.3,3.7,0.4,5.6C741.3,327.5,741.5,328.1,741.6,328.7z"
	/>
<path fill="#FAC710" d="M717.9,304.6c0-2.6-0.1-5.1-0.1-7.7c1.9,0,3.9,0,5.8,0c1.2,0,1.9,0.6,1.9,1.9c0,0.1,0,0.3,0,0.4
	c0.5,5.3,0.3,5.5-4.9,5.5C719.7,304.7,718.8,304.7,717.9,304.6z"/>
<path fill="#F7FBFF" d="M685.9,312.5c0,2.6,0,5.2,0,7.8c0,4.5,0,9,0,13.4c0,2.7-0.2,2.7-2.9,2.9c-5.6,0.3-5.6,0.3-5.7,5.9
	c0,0.6,0,1.3,0,1.9c-1.8,0-3.6,0-5.4,0c-1.6,0-2.3-0.6-2.4-2.3c-0.1-1.7,0.9-3.9-0.7-5.1c-1.3-1-3.3-0.3-4.9-0.4
	c-1.5-0.1-2.1-0.7-2.1-2.2c0-6.6,0-13.2,0-19.7c0-2,1.2-2.2,2.8-2.2C671.7,312.5,678.8,312.5,685.9,312.5z"/>
<path fill="#C32145" d="M765.2,447.7c2.6,0.2,5.2,0.2,7.8,0c8,0.2,16.1,0.3,24.1,0c0.1,0.1,0.2,0.2,0.3,0.3c-0.6,6-0.1,12-0.2,18
	c0,1.9-0.1,3.8-0.1,5.7c-7.1,0-14.2,0.1-21.4,0.1c-14.1,0-28.2-0.1-42.3-0.1c0-6.5,0-13-0.1-19.5c0-1.4-0.2-2.8-0.2-4.2
	c0.1-0.1,0.2-0.2,0.3-0.3C743.9,448,754.6,448,765.2,447.7z"/>
<path fill="#FAC710" d="M709.6,718.9c0-17.7-0.1-35.4-0.1-53.1c0-2.7,0.1-2.7,2.9-2.8c1.7-0.1,3.4-0.1,5-0.1c0,0,0.3,0.2,0.3,0.2
	c0,3.2-0.1,6.5,0,9.7c0,1.8-0.7,3.9,0.5,5.2c1.2,1.3,3.2,0.6,4.8,0.6c1.9,0,2.4,0.9,2.4,2.7c-0.1,2.8,0,5.7,0,8.5
	c0,5-0.7,5.3,4.9,5.2c2.7-0.1,2.7,0.1,2.8,2.9c0,0.5,0,1,0,1.6c0.1,3.2,0.1,3.3,3.3,3.3c4.5,0,4.5-0.1,4.5,4.4
	c0,3.3,0.1,3.3,3.6,3.4c2.5,0,4.9,0,7.4,0c5,0,5,0,5.3-5.1c0-0.1,0-0.3,0-0.4c-0.1-1.7,0.8-2.3,2.4-2.2c0.6,0,1.3,0,1.9,0
	c3.4-0.1,3.4-0.1,3.5-3.5c0-0.4,0-0.8,0-1.2c0.1-3,0.1-3,3.1-3.1c0.5,0,1,0,1.6,0c3-0.1,3.1-0.1,3.2-3c0-0.8,0-1.6,0-2.3
	c0-28.4,0-56.7,0-85.1c0-5.2,0.6-5.3-4.9-5.2c-2.7,0-2.9-0.1-2.9-2.8c-0.1-5.4,0-10.9,0-16.3c0-4.7,0.6-5-4.8-4.9
	c-2.9,0-2.9-0.1-3-3.2c0-3.2-0.1-6.5,0-9.7c0.1-2-0.8-2.7-2.8-2.7c-4.4,0.1-8.8,0-13.2,0c-0.1-1-0.2-2-0.2-3.1
	c-0.1-5.1-0.1-5.1,5-5.2c2.9-0.1,2.9-0.1,2.9-3.1c0.1-4.2,0.2-8.4,0.3-12.7c6.8,0,13.7,0,20.5,0c3.1,0,3.1,0.1,3.1,3.3
	c0,0.8,0,1.5,0,2.3c0,7.9,0,15.8,0,23.6c0,1.6,0.2,2.7,2.2,2.7c1.8,0,4-0.8,5.2,0.5c1.3,1.4,0.5,3.7,0.5,5.6c0.1,7.6,0,15.2,0,22.9
	c0,2.8,0.1,2.8,2.8,2.9c1.8,0.1,3.6-0.2,5.4,0.3c0,18.3,0,36.6,0,54.9c-1.7,0.8-3.6,0.4-5.4,0.5c-2.7,0.1-2.8,0.1-2.8,2.9
	c0,11.4,0,22.8,0,34.2c0,2.8,0.1,2.8,2.8,2.9c4.4,0.1,8.8,0.1,13.2,0.2c0,8-0.1,15.9-0.1,23.9C767.8,719,738.7,718.9,709.6,718.9z"
	/>
<path fill="#F7FBFF" d="M749.4,535.6c-0.1,4.2-0.2,8.4-0.3,12.7c-0.1,3-0.1,3-2.9,3.1c-5,0.2-5,0.2-5,5.2c0,1,0.1,2,0.2,3.1
	c-0.6,5.2,0,10.4-0.4,15.6c-1.9,0-3.8,0.1-5.8,0c-1.5,0-2.1,0.6-2,2.1c0.1,4.7,0.1,9.5,0.2,14.2c-0.1,1.4-0.2,2.8-0.2,4.3
	c0,12.8,0,25.6,0,38.5c0,5.1,0.5,4.7-4.5,4.7c-0.5,0-1,0-1.6,0c-1.3-0.1-1.9,0.6-1.9,1.9c0,1.9,0.1,3.9,0.1,5.8
	c-2.6,0.4-5.1,0.2-7.7,0.1c0,0-0.1-0.1-0.1-0.1c0-24.9,0-49.7,0-74.5c0-5.4,0-10.9,0-16.3c0-3.8,0-3.8,3.8-4c3.7-0.1,3.9-0.4,4-4
	c0-3.1,0-6.2,0-9.3c0.1-2.8,0.2-2.8,2.8-3c4.6-0.2,4.7-0.2,4.9-5.1c0.1-2.1,0.9-2.8,2.8-2.6c0.6,0,1.3,0,1.9,0
	c2.9,0.1,3.1,0.1,3,3.1c-0.1,5,0.1,4.6,4.7,4.6c1,0,2.1,0,3.1,0c0,0,0.3,0,0.3,0L749.4,535.6z"/>
<path fill="#D2E7F7" d="M749.4,535.6c0,0-0.3,0-0.3,0s-0.3,0-0.3,0c0-1.6,0.2-3,0.6-4.6c0.9-3.1,0.8-3.1,3.6-3.1
	c8.2,0,16.3,0,24.5,0c3.1,0,3.2,0.1,3.2,3.3c0,2.7-0.1,5.4,0,8.2c0.1,3.4,0.7,4,4.1,4.1c0.8,0,1.6,0,2.3,0c1.5,0,2.1,0.8,2,2.2
	c0,0.4,0,0.8,0,1.2c0,17.6,0,35.2-0.1,52.8c-1.8-0.5-3.6-0.2-5.4-0.3c-2.7-0.1-2.8-0.1-2.8-2.9c0-7.6,0-15.2,0-22.9
	c0-1.9,0.8-4.2-0.5-5.6c-1.2-1.3-3.4-0.5-5.2-0.5c-2.1,0-2.3-1.1-2.2-2.7c0-7.9,0-15.7,0-23.6c0-0.8,0-1.5,0-2.3
	c0-3.2-0.1-3.2-3.1-3.3C763.1,535.6,756.3,535.6,749.4,535.6z"/>
<path fill="#D2E7F7" d="M797,695.1c-4.4-0.1-8.8-0.1-13.2-0.2c-2.7-0.1-2.8-0.1-2.8-2.9c0-11.4,0-22.8,0-34.2c0-2.8,0.1-2.8,2.8-2.9
	c1.8-0.1,3.6,0.3,5.4-0.5c0,9.7,0,19.4,0.1,29c0,3.6,0,3.6,3.6,3.7c0.5,0,1,0,1.5,0c2.1-0.2,2.7,0.9,2.6,2.8
	C797,691.7,797.1,693.4,797,695.1z"/>
<path fill="#FAC710" d="M717.8,646.9c2.6,0,5.1,0.2,7.7-0.1c0,4.1,0,8.2,0,12.3c0,4.1,0,4.1-3.9,4.1c-1.3,0-2.6,0-3.8,0
	c0,0-0.3-0.2-0.3-0.2C717.7,657.6,717.1,652.2,717.8,646.9z"/>
<path fill="#DFEFF9" d="M820.4,447.7c-0.3,0-0.5,0-0.8,0C819.9,447.3,820.1,447.3,820.4,447.7z"/>
<path fill="#F7FBFF" d="M765.2,447.7c-10.6,0.2-21.3,0.3-31.9,0c0-1.8,0-3.6,0-5.4c0-1.7-0.8-2.2-2.4-2.3c-1.6,0-3.6,0.7-4.8-0.6
	c-1.2-1.2-0.5-3.2-0.6-4.8c0-1.6-0.6-2.4-2.3-2.3c-0.1,0-0.3,0-0.4,0c-5.1-0.3-5.1-0.3-5.1-5.3c0-15.2,0-30.5,0-45.7
	c0-0.9,0-1.8,0-2.7c0-1.4,0.6-2.2,2-2.2c0.9,0,1.8,0,2.7,0c2.9-0.1,2.9-0.1,3-3.2c0-0.4,0-0.8,0-1.2c0.1-3.4,0.1-3.4,3.5-3.4
	c1.4,0,2.8,0,4.3,0l0,0c0,1.9,0,3.8,0,5.7c0,1.4,0.7,2.1,2.1,2.1c1.9,0,3.8,0,5.7,0l0,0c0,1.4,0,2.8,0,4.3c0.1,3.5,0.1,3.5,3.4,3.5
	c5.3,0,10.6,0,15.9,0c0.9,0,1.8,0,2.7,0c1.4,0,2.1,0.7,2.1,2.1c0,4,0,8,0,12c0,2.1-1.3,2.2-2.8,2.2c-7.1,0-14.2,0-21.3,0
	c0-1.9,0-3.8,0-5.8c0-1-0.3-1.7-1.4-2c-4.8-1.3-6.7,0.2-6.3,5.1c0,0.1,0,0.3,0,0.4c-0.1,1.7,0.8,2.2,2.4,2.2c1.8,0,3.6,0,5.4,0
	c0,1.5,0,3.1,0,4.6c0.1,3,0.1,3.1,3,3.1c5.4,0.1,10.8,0,16.3,0c0.9,0,1.8,0,2.7,0c1.5,0,2.1,0.7,2.1,2.1c0,2.3,0,4.6,0,7
	c0,3.6,0,7.2,0,10.8c0,4.1,0,4.1-4,4.1c-6.7,0-13.4,0-20.1,0c0-1.9,0-3.8,0-5.8c0-1-0.3-1.7-1.4-2c-4.8-1.3-6.7,0.2-6.3,5.1
	c0,0.1,0,0.3,0,0.4c-0.1,1.7,0.8,2.2,2.4,2.2c1.8,0,3.6,0,5.4,0c0,1.7,0.1,3.4,0,5c-0.1,2,0.7,2.8,2.7,2.8c4.7-0.1,9.3-0.1,14,0
	c2.3,0,5.1-1,6.7,0.6c1.7,1.6,0.4,4.4,0.7,6.7C765.2,447.5,765.2,447.6,765.2,447.7z"/>
<path fill="#F7FBFF" d="M797.1,440c0-1.6,0-3.1,0-4.7c0-1.4-0.2-2.9,1.9-3.2c0.9-0.1,1.2-0.9,1.2-1.7c0-0.9,0-1.8,0-2.7
	c-0.1-2.9-2.6-4.3-5.3-3c-1,0.5-0.9,1.5-0.9,2.3c-0.4,5.2-0.4,5.2-5.6,5.2c-4.3,0-8.5,0-12.8,0c-1.8,0-2.6-0.7-2.5-2.5
	c0-6.3,0.1-12.7,0-19c0-2.1,1-2.6,2.9-2.6c5.8,0.1,11.7,0,17.5,0c3.7,0,3.7,0,3.8-3.6c0-1.9-0.4-3.7,2.3-4.6
	c1.6-0.5,0.8-2.8,0.8-4.3c0-2.7-2.9-4.3-5.3-2.9c-1,0.6-0.8,1.5-0.8,2.4c-0.3,5.1-0.3,5.1-5.4,5.1c-4.1,0-8.3,0-12.4,0
	c-3,0-3.1-0.1-3.2-3c-0.1-3.5-0.1-7,0-10.5c0.1-2.7,0.2-2.8,3-2.8c4.8-0.1,9.6,0,14.4,0c3.5,0,3.5-0.1,3.6-3.3
	c0.1-2-0.6-4.2,2.4-4.8c0.8-0.1,0.6-1.3,0.7-2.1c0-1.2,0-2.3,0-3.5c0-1.1,0.5-1.7,1.6-1.8c1.4,0,2.8,0,4.3,0c1.3,0,1.8,0.8,1.8,2
	c0,0.8,0,1.6,0,2.3c0,21,0,42,0,62.9c0,0.8,0,1.6,0,2.3c0,1.3-0.7,1.9-1.9,1.9C800.9,440,799,440,797.1,440
	C797.1,440,797.1,440,797.1,440z"/>
<path fill="#F7FBFF" d="M733.3,368.5c0-1.8,0-3.6,0-5.4c0-1.6,0.6-2.4,2.3-2.3c0.5,0,1,0,1.6,0c16,0,32.1,0,48.1,0
	c0.8,0,1.6,0,2.3,0c1.1,0.1,1.6,0.7,1.6,1.7c0,1.3,0,2.6,0.1,3.9c0,0.8,0,1.8,1,1.9c2.5,0.4,2.1,2.2,2.1,3.8c0,4.1,0,4.1-4,4.2
	c-15.8,0-31.6,0-47.3,0c0,0,0,0,0,0c0-1.9,0-3.8,0-5.7c0-1.4-0.7-2.1-2.1-2.1C737.1,368.5,735.2,368.5,733.3,368.5L733.3,368.5z"/>
<path fill="#F7FBFF" d="M797.1,447.7c-8,0.3-16.1,0.2-24.1,0c0-1.7,0.1-3.4,0-5c-0.1-2.1,0.8-2.7,2.8-2.7c7.1,0.1,14.2,0,21.3,0
	c0,0,0,0,0,0C797.1,442.6,797.1,445.2,797.1,447.7z"/>
<path fill="#D2E7F7" d="M765.2,352.1c2.6,0,5.2,0.1,7.8,0.1C770.4,353.3,767.8,353.5,765.2,352.1z"/>
<path fill="#FCD642" d="M717.8,663.2c1.3,0,2.6,0,3.8,0c3.9,0,3.9,0,3.9-4.1c0-4.1,0-8.2,0-12.3c0-1.9,0-3.9-0.1-5.8
	c0-1.3,0.6-1.9,1.9-1.9c0.5,0,1,0,1.6,0c4.9,0,4.5,0.4,4.5-4.7c0-12.8,0-25.6,0-38.5c0-1.4,0.1-2.8,0.2-4.3c1.2,0,2.3,0,3.5,0
	c4.1,0,4.1,0,4.1-4c0-4.1,0-8.2,0-12.3c0.4-5.2-0.3-10.4,0.4-15.6c4.4,0,8.8,0.1,13.2,0c2,0,2.8,0.6,2.8,2.7c-0.1,3.2-0.1,6.5,0,9.7
	c0,3.1,0.1,3.2,3,3.2c5.4-0.1,4.8,0.2,4.8,4.9c0,5.4,0,10.9,0,16.3c0,2.7,0.2,2.9,2.9,2.8c5.5-0.1,4.9,0.1,4.9,5.2
	c0,28.4,0,56.7,0,85.1c0,0.8,0,1.6,0,2.3c-0.1,2.9-0.1,2.9-3.2,3c-0.5,0-1,0-1.6,0c-3,0.1-3,0.1-3.1,3.1c0,0.4,0,0.8,0,1.2
	c-0.1,3.4-0.1,3.4-3.5,3.5c-0.6,0-1.3,0-1.9,0c-1.6-0.1-2.5,0.6-2.4,2.2c0,0.1,0,0.3,0,0.4c-0.3,5.1-0.3,5.1-5.3,5.1
	c-2.5,0-4.9,0-7.4,0c-3.5,0-3.6-0.1-3.6-3.4c0-4.6,0-4.4-4.5-4.4c-3.2,0-3.2-0.1-3.3-3.3c0-0.5,0-1,0-1.6c-0.1-2.8-0.2-3-2.8-2.9
	c-5.6,0.1-4.9-0.2-4.9-5.2c0-2.8-0.1-5.7,0-8.5c0-1.7-0.5-2.6-2.4-2.7c-1.6,0-3.6,0.7-4.8-0.6c-1.3-1.4-0.5-3.5-0.5-5.2
	C717.7,669.6,717.7,666.4,717.8,663.2z"/>
<path fill="#FAC710" d="M741.1,575.3c0,4.1,0,8.2,0,12.3c0,3.9,0,3.9-4.1,4c-1.2,0-2.3,0-3.5,0c-0.1-4.7-0.1-9.5-0.2-14.2
	c0-1.4,0.5-2.1,2-2.1C737.2,575.4,739.2,575.3,741.1,575.3z"/>
<path fill="#DFEFF9" d="M741.1,432.2c-1.8,0-3.6,0-5.4,0c-1.5,0-2.5-0.5-2.4-2.2c0-0.1,0-0.3,0-0.4c-0.3-4.9,1.5-6.4,6.3-5.1
	c1.1,0.3,1.4,1,1.4,2C741.1,428.4,741.1,430.3,741.1,432.2C741.1,432.3,741.1,432.2,741.1,432.2z"/>
<path fill="#DFEFF9" d="M733.3,368.5c1.9,0,3.8,0,5.7,0c1.4,0,2.1,0.7,2.1,2.1c0,1.9,0,3.8,0,5.7c-1.9,0-3.8,0-5.7,0
	c-1.4,0-2.1-0.7-2.1-2.1C733.3,372.3,733.3,370.4,733.3,368.5z"/>
<path fill="#DFEFF9" d="M741.1,400.4c-1.8,0-3.6,0-5.4,0c-1.5,0-2.5-0.5-2.4-2.2c0-0.1,0-0.3,0-0.4c-0.3-4.9,1.5-6.4,6.3-5.1
	c1.1,0.3,1.4,1,1.4,2C741.1,396.5,741.1,398.5,741.1,400.4C741.1,400.4,741.1,400.4,741.1,400.4z"/>
</svg>
